<?xml version="1.0" encoding="UTF-8" standalone="no"?>
<!DOCTYPE svg PUBLIC "-//W3C//DTD SVG 1.1//EN"
 "http://www.w3.org/Graphics/SVG/1.1/DTD/svg11.dtd">
<!-- Generated by graphviz version 2.40.1 (20161225.0304)
 -->
<!-- Title: dependencies Pages: 1 -->
<svg width="1076pt" height="211pt"
 viewBox="0.00 0.00 1076.00 211.00" xmlns="http://www.w3.org/2000/svg" xmlns:xlink="http://www.w3.org/1999/xlink">
<g id="graph0" class="graph" transform="scale(1 1) rotate(0) translate(4 207)">
<title>dependencies</title>
<polygon fill="#ffffff" stroke="transparent" points="-4,4 -4,-207 1072,-207 1072,4 -4,4"/>
<text text-anchor="start" x="513.0091" y="-42.4" font-family="sans-serif" font-weight="bold" font-size="14.00" fill="#000000">Legend</text>
<polygon fill="#ffffb3" stroke="transparent" points="300,-10 300,-30 320,-30 320,-10 300,-10"/>
<text text-anchor="start" x="323.629" y="-15.4" font-family="sans-serif" font-size="14.00" fill="#000000"> &#160;Declarations</text>
<polygon fill="#8dd3c7" stroke="transparent" points="413,-10 413,-30 433,-30 433,-10 413,-10"/>
<text text-anchor="start" x="436.7251" y="-15.4" font-family="sans-serif" font-size="14.00" fill="#000000"> &#160;Module</text>
<polygon fill="#80b1d3" stroke="transparent" points="499,-10 499,-30 519,-30 519,-10 499,-10"/>
<text text-anchor="start" x="522.7812" y="-15.4" font-family="sans-serif" font-size="14.00" fill="#000000"> &#160;Bootstrap</text>
<polygon fill="#fdb462" stroke="transparent" points="596,-10 596,-30 616,-30 616,-10 596,-10"/>
<text text-anchor="start" x="619.6732" y="-15.4" font-family="sans-serif" font-size="14.00" fill="#000000"> &#160;Providers</text>
<polygon fill="#fb8072" stroke="transparent" points="692,-10 692,-30 712,-30 712,-10 692,-10"/>
<text text-anchor="start" x="715.7258" y="-15.4" font-family="sans-serif" font-size="14.00" fill="#000000"> &#160;Exports</text>
<g id="clust1" class="cluster">
<title>cluster_AuthenticationModule</title>
<polygon fill="none" stroke="#000000" stroke-dasharray="1,5" points="8,-70 8,-195 1060,-195 1060,-70 8,-70"/>
</g>
<g id="clust2" class="cluster">
<title>cluster_AuthenticationModule_declarations</title>
<polygon fill="none" stroke="#000000" points="420,-78 420,-130 1052,-130 1052,-78 420,-78"/>
</g>
<g id="clust7" class="cluster">
<title>cluster_AuthenticationModule_imports</title>
<polygon fill="none" stroke="#000000" points="194,-78 194,-130 412,-130 412,-78 194,-78"/>
</g>
<g id="clust10" class="cluster">
<title>cluster_AuthenticationModule_providers</title>
<polygon fill="none" stroke="#000000" points="16,-78 16,-130 186,-130 186,-78 16,-78"/>
</g>
<!-- LoginComponent -->
<g id="node1" class="node">
<title>LoginComponent</title>
<polygon fill="#ffffb3" stroke="#000000" points="1044.2758,-122 929.7242,-122 929.7242,-86 1044.2758,-86 1044.2758,-122"/>
<text text-anchor="middle" x="987" y="-99.8" font-family="Times,serif" font-size="14.00" fill="#000000">LoginComponent</text>
</g>
<!-- AuthenticationModule -->
<g id="node5" class="node">
<title>AuthenticationModule</title>
<polygon fill="#8dd3c7" stroke="#000000" points="579.2534,-187 576.2534,-191 555.2534,-191 552.2534,-187 436.7466,-187 436.7466,-151 579.2534,-151 579.2534,-187"/>
<text text-anchor="middle" x="508" y="-164.8" font-family="Times,serif" font-size="14.00" fill="#000000">AuthenticationModule</text>
</g>
<!-- LoginComponent&#45;&gt;AuthenticationModule -->
<g id="edge1" class="edge">
<title>LoginComponent&#45;&gt;AuthenticationModule</title>
<path fill="none" stroke="#000000" d="M987,-122.2921C987,-144.2057 987,-178 987,-178 987,-178 589.4524,-178 589.4524,-178"/>
<polygon fill="#000000" stroke="#000000" points="589.4524,-174.5001 579.4524,-178 589.4523,-181.5001 589.4524,-174.5001"/>
</g>
<!-- RegisterComponent -->
<g id="node2" class="node">
<title>RegisterComponent</title>
<polygon fill="#ffffb3" stroke="#000000" points="911.9846,-122 784.0154,-122 784.0154,-86 911.9846,-86 911.9846,-122"/>
<text text-anchor="middle" x="848" y="-99.8" font-family="Times,serif" font-size="14.00" fill="#000000">RegisterComponent</text>
</g>
<!-- RegisterComponent&#45;&gt;AuthenticationModule -->
<g id="edge2" class="edge">
<title>RegisterComponent&#45;&gt;AuthenticationModule</title>
<path fill="none" stroke="#000000" d="M848,-122.1061C848,-141.3391 848,-169 848,-169 848,-169 589.2751,-169 589.2751,-169"/>
<polygon fill="#000000" stroke="#000000" points="589.2752,-165.5001 579.2751,-169 589.2751,-172.5001 589.2752,-165.5001"/>
</g>
<!-- RegisterStep1Component -->
<g id="node3" class="node">
<title>RegisterStep1Component</title>
<polygon fill="#ffffb3" stroke="#000000" points="765.8725,-122 606.1275,-122 606.1275,-86 765.8725,-86 765.8725,-122"/>
<text text-anchor="middle" x="686" y="-99.8" font-family="Times,serif" font-size="14.00" fill="#000000">RegisterStep1Component</text>
</g>
<!-- RegisterStep1Component&#45;&gt;AuthenticationModule -->
<g id="edge3" class="edge">
<title>RegisterStep1Component&#45;&gt;AuthenticationModule</title>
<path fill="none" stroke="#000000" d="M686,-122.027C686,-138.3976 686,-160 686,-160 686,-160 589.3738,-160 589.3738,-160"/>
<polygon fill="#000000" stroke="#000000" points="589.3738,-156.5001 579.3738,-160 589.3737,-163.5001 589.3738,-156.5001"/>
</g>
<!-- RegisterStep2Component -->
<g id="node4" class="node">
<title>RegisterStep2Component</title>
<polygon fill="#ffffb3" stroke="#000000" points="587.8725,-122 428.1275,-122 428.1275,-86 587.8725,-86 587.8725,-122"/>
<text text-anchor="middle" x="508" y="-99.8" font-family="Times,serif" font-size="14.00" fill="#000000">RegisterStep2Component</text>
</g>
<!-- RegisterStep2Component&#45;&gt;AuthenticationModule -->
<g id="edge4" class="edge">
<title>RegisterStep2Component&#45;&gt;AuthenticationModule</title>
<path fill="none" stroke="#000000" d="M508,-122.1061C508,-122.1061 508,-140.991 508,-140.991"/>
<polygon fill="#000000" stroke="#000000" points="504.5001,-140.9909 508,-150.991 511.5001,-140.991 504.5001,-140.9909"/>
</g>
<!-- authRouting -->
<g id="node6" class="node">
<title>authRouting</title>
<polygon fill="#8dd3c7" stroke="#000000" points="403.7233,-122 400.7233,-126 379.7233,-126 376.7233,-122 318.2767,-122 318.2767,-86 403.7233,-86 403.7233,-122"/>
<text text-anchor="middle" x="361" y="-99.8" font-family="Times,serif" font-size="14.00" fill="#000000">authRouting</text>
</g>
<!-- authRouting&#45;&gt;AuthenticationModule -->
<g id="edge5" class="edge">
<title>authRouting&#45;&gt;AuthenticationModule</title>
<path fill="none" stroke="#000000" d="M361,-122.027C361,-138.3976 361,-160 361,-160 361,-160 426.653,-160 426.653,-160"/>
<polygon fill="#000000" stroke="#000000" points="426.6531,-163.5001 436.653,-160 426.653,-156.5001 426.6531,-163.5001"/>
</g>
<!-- SharedModule -->
<g id="node7" class="node">
<title>SharedModule</title>
<polygon fill="#8dd3c7" stroke="#000000" points="300.4231,-122 297.4231,-126 276.4231,-126 273.4231,-122 201.5769,-122 201.5769,-86 300.4231,-86 300.4231,-122"/>
<text text-anchor="middle" x="251" y="-99.8" font-family="Times,serif" font-size="14.00" fill="#000000">SharedModule</text>
</g>
<!-- SharedModule&#45;&gt;AuthenticationModule -->
<g id="edge6" class="edge">
<title>SharedModule&#45;&gt;AuthenticationModule</title>
<path fill="none" stroke="#000000" d="M251,-122.1061C251,-141.3391 251,-169 251,-169 251,-169 426.4112,-169 426.4112,-169"/>
<polygon fill="#000000" stroke="#000000" points="426.4112,-172.5001 436.4112,-169 426.4111,-165.5001 426.4112,-172.5001"/>
</g>
<!-- IsSignedInGuard -->
<g id="node8" class="node">
<title>IsSignedInGuard</title>
<ellipse fill="#fdb462" stroke="#000000" cx="101" cy="-104" rx="77.0081" ry="18"/>
<text text-anchor="middle" x="101" y="-99.8" font-family="Times,serif" font-size="14.00" fill="#000000">IsSignedInGuard</text>
</g>
<!-- IsSignedInGuard&#45;&gt;AuthenticationModule -->
<g id="edge7" class="edge">
<title>IsSignedInGuard&#45;&gt;AuthenticationModule</title>
<path fill="none" stroke="#000000" d="M101,-122.2921C101,-144.2057 101,-178 101,-178 101,-178 426.6403,-178 426.6403,-178"/>
<polygon fill="#000000" stroke="#000000" points="426.6403,-181.5001 436.6403,-178 426.6402,-174.5001 426.6403,-181.5001"/>
</g>
</g>
</svg>
