<?xml version="1.0" encoding="UTF-8" standalone="no"?>
<!DOCTYPE svg PUBLIC "-//W3C//DTD SVG 1.1//EN"
 "http://www.w3.org/Graphics/SVG/1.1/DTD/svg11.dtd">
<!-- Generated by graphviz version 2.40.1 (20161225.0304)
 -->
<!-- Title: dependencies Pages: 1 -->
<svg width="652pt" height="211pt"
 viewBox="0.00 0.00 652.00 211.00" xmlns="http://www.w3.org/2000/svg" xmlns:xlink="http://www.w3.org/1999/xlink">
<g id="graph0" class="graph" transform="scale(1 1) rotate(0) translate(4 207)">
<title>dependencies</title>
<polygon fill="#ffffff" stroke="transparent" points="-4,4 -4,-207 648,-207 648,4 -4,4"/>
<text text-anchor="start" x="301.0091" y="-42.4" font-family="sans-serif" font-weight="bold" font-size="14.00" fill="#000000">Legend</text>
<polygon fill="#ffffb3" stroke="transparent" points="88,-10 88,-30 108,-30 108,-10 88,-10"/>
<text text-anchor="start" x="111.629" y="-15.4" font-family="sans-serif" font-size="14.00" fill="#000000"> &#160;Declarations</text>
<polygon fill="#8dd3c7" stroke="transparent" points="201,-10 201,-30 221,-30 221,-10 201,-10"/>
<text text-anchor="start" x="224.7251" y="-15.4" font-family="sans-serif" font-size="14.00" fill="#000000"> &#160;Module</text>
<polygon fill="#80b1d3" stroke="transparent" points="287,-10 287,-30 307,-30 307,-10 287,-10"/>
<text text-anchor="start" x="310.7812" y="-15.4" font-family="sans-serif" font-size="14.00" fill="#000000"> &#160;Bootstrap</text>
<polygon fill="#fdb462" stroke="transparent" points="384,-10 384,-30 404,-30 404,-10 384,-10"/>
<text text-anchor="start" x="407.6732" y="-15.4" font-family="sans-serif" font-size="14.00" fill="#000000"> &#160;Providers</text>
<polygon fill="#fb8072" stroke="transparent" points="480,-10 480,-30 500,-30 500,-10 480,-10"/>
<text text-anchor="start" x="503.7258" y="-15.4" font-family="sans-serif" font-size="14.00" fill="#000000"> &#160;Exports</text>
<g id="clust1" class="cluster">
<title>cluster_ApplicantModule</title>
<polygon fill="none" stroke="#000000" stroke-dasharray="1,5" points="8,-70 8,-195 636,-195 636,-70 8,-70"/>
</g>
<g id="clust2" class="cluster">
<title>cluster_ApplicantModule_declarations</title>
<polygon fill="none" stroke="#000000" points="438,-78 438,-130 628,-130 628,-78 438,-78"/>
</g>
<g id="clust4" class="cluster">
<title>cluster_ApplicantModule_imports</title>
<polygon fill="none" stroke="#000000" points="186,-78 186,-130 430,-130 430,-78 186,-78"/>
</g>
<g id="clust7" class="cluster">
<title>cluster_ApplicantModule_providers</title>
<polygon fill="none" stroke="#000000" points="16,-78 16,-130 178,-130 178,-78 16,-78"/>
</g>
<!-- ApplicantProfileComponent -->
<g id="node1" class="node">
<title>ApplicantProfileComponent</title>
<polygon fill="#ffffb3" stroke="#000000" points="620.14,-122 445.86,-122 445.86,-86 620.14,-86 620.14,-122"/>
<text text-anchor="middle" x="533" y="-99.8" font-family="Times,serif" font-size="14.00" fill="#000000">ApplicantProfileComponent</text>
</g>
<!-- ApplicantModule -->
<g id="node2" class="node">
<title>ApplicantModule</title>
<polygon fill="#8dd3c7" stroke="#000000" points="368.2577,-187 365.2577,-191 344.2577,-191 341.2577,-187 253.7423,-187 253.7423,-151 368.2577,-151 368.2577,-187"/>
<text text-anchor="middle" x="311" y="-164.8" font-family="Times,serif" font-size="14.00" fill="#000000">ApplicantModule</text>
</g>
<!-- ApplicantProfileComponent&#45;&gt;ApplicantModule -->
<g id="edge1" class="edge">
<title>ApplicantProfileComponent&#45;&gt;ApplicantModule</title>
<path fill="none" stroke="#000000" d="M533,-122.1061C533,-141.3391 533,-169 533,-169 533,-169 378.4592,-169 378.4592,-169"/>
<polygon fill="#000000" stroke="#000000" points="378.4593,-165.5001 368.4592,-169 378.4592,-172.5001 378.4593,-165.5001"/>
</g>
<!-- SharedModule -->
<g id="node3" class="node">
<title>SharedModule</title>
<polygon fill="#8dd3c7" stroke="#000000" points="422.4231,-122 419.4231,-126 398.4231,-126 395.4231,-122 323.5769,-122 323.5769,-86 422.4231,-86 422.4231,-122"/>
<text text-anchor="middle" x="373" y="-99.8" font-family="Times,serif" font-size="14.00" fill="#000000">SharedModule</text>
</g>
<!-- SharedModule&#45;&gt;ApplicantModule -->
<g id="edge2" class="edge">
<title>SharedModule&#45;&gt;ApplicantModule</title>
<path fill="none" stroke="#000000" d="M346.0838,-122.1061C346.0838,-122.1061 346.0838,-140.991 346.0838,-140.991"/>
<polygon fill="#000000" stroke="#000000" points="342.5839,-140.9909 346.0838,-150.991 349.5839,-140.991 342.5839,-140.9909"/>
</g>
<!-- applicantRouting -->
<g id="node4" class="node">
<title>applicantRouting</title>
<polygon fill="#8dd3c7" stroke="#000000" points="306.4342,-122 303.4342,-126 282.4342,-126 279.4342,-122 193.5658,-122 193.5658,-86 306.4342,-86 306.4342,-122"/>
<text text-anchor="middle" x="250" y="-99.8" font-family="Times,serif" font-size="14.00" fill="#000000">applicantRouting</text>
</g>
<!-- applicantRouting&#45;&gt;ApplicantModule -->
<g id="edge3" class="edge">
<title>applicantRouting&#45;&gt;ApplicantModule</title>
<path fill="none" stroke="#000000" d="M279.919,-122.1061C279.919,-122.1061 279.919,-140.991 279.919,-140.991"/>
<polygon fill="#000000" stroke="#000000" points="276.4191,-140.9909 279.919,-150.991 283.4191,-140.991 276.4191,-140.9909"/>
</g>
<!-- ApplicantGuard -->
<g id="node5" class="node">
<title>ApplicantGuard</title>
<ellipse fill="#fdb462" stroke="#000000" cx="97" cy="-104" rx="73.4959" ry="18"/>
<text text-anchor="middle" x="97" y="-99.8" font-family="Times,serif" font-size="14.00" fill="#000000">ApplicantGuard</text>
</g>
<!-- ApplicantGuard&#45;&gt;ApplicantModule -->
<g id="edge4" class="edge">
<title>ApplicantGuard&#45;&gt;ApplicantModule</title>
<path fill="none" stroke="#000000" d="M97,-122.1061C97,-141.3391 97,-169 97,-169 97,-169 243.6519,-169 243.6519,-169"/>
<polygon fill="#000000" stroke="#000000" points="243.652,-172.5001 253.6519,-169 243.6519,-165.5001 243.652,-172.5001"/>
</g>
</g>
</svg>
