<?xml version="1.0" encoding="UTF-8" standalone="no"?>
<!DOCTYPE svg PUBLIC "-//W3C//DTD SVG 1.1//EN"
 "http://www.w3.org/Graphics/SVG/1.1/DTD/svg11.dtd">
<!-- Generated by graphviz version 2.40.1 (20161225.0304)
 -->
<!-- Title: dependencies Pages: 1 -->
<svg width="1435pt" height="284pt"
 viewBox="0.00 0.00 1435.00 284.00" xmlns="http://www.w3.org/2000/svg" xmlns:xlink="http://www.w3.org/1999/xlink">
<g id="graph0" class="graph" transform="scale(1 1) rotate(0) translate(4 280)">
<title>dependencies</title>
<polygon fill="#ffffff" stroke="transparent" points="-4,4 -4,-280 1431,-280 1431,4 -4,4"/>
<text text-anchor="start" x="692.5091" y="-42.4" font-family="sans-serif" font-weight="bold" font-size="14.00" fill="#000000">Legend</text>
<polygon fill="#ffffb3" stroke="transparent" points="479.5,-10 479.5,-30 499.5,-30 499.5,-10 479.5,-10"/>
<text text-anchor="start" x="503.129" y="-15.4" font-family="sans-serif" font-size="14.00" fill="#000000"> &#160;Declarations</text>
<polygon fill="#8dd3c7" stroke="transparent" points="592.5,-10 592.5,-30 612.5,-30 612.5,-10 592.5,-10"/>
<text text-anchor="start" x="616.2251" y="-15.4" font-family="sans-serif" font-size="14.00" fill="#000000"> &#160;Module</text>
<polygon fill="#80b1d3" stroke="transparent" points="678.5,-10 678.5,-30 698.5,-30 698.5,-10 678.5,-10"/>
<text text-anchor="start" x="702.2812" y="-15.4" font-family="sans-serif" font-size="14.00" fill="#000000"> &#160;Bootstrap</text>
<polygon fill="#fdb462" stroke="transparent" points="775.5,-10 775.5,-30 795.5,-30 795.5,-10 775.5,-10"/>
<text text-anchor="start" x="799.1732" y="-15.4" font-family="sans-serif" font-size="14.00" fill="#000000"> &#160;Providers</text>
<polygon fill="#fb8072" stroke="transparent" points="871.5,-10 871.5,-30 891.5,-30 891.5,-10 871.5,-10"/>
<text text-anchor="start" x="895.2258" y="-15.4" font-family="sans-serif" font-size="14.00" fill="#000000"> &#160;Exports</text>
<g id="clust1" class="cluster">
<title>cluster_SharedModule</title>
<polygon fill="none" stroke="#000000" stroke-dasharray="1,5" points="8,-70 8,-268 1419,-268 1419,-70 8,-70"/>
</g>
<g id="clust2" class="cluster">
<title>cluster_SharedModule_declarations</title>
<polygon fill="none" stroke="#000000" points="32,-78 32,-130 1394,-130 1394,-78 32,-78"/>
</g>
<g id="clust13" class="cluster">
<title>cluster_SharedModule_exports</title>
<polygon fill="none" stroke="#000000" points="16,-208 16,-260 1411,-260 1411,-208 16,-208"/>
</g>
<!-- DashboardComponent -->
<g id="node1" class="node">
<title>DashboardComponent</title>
<polygon fill="#ffffb3" stroke="#000000" points="1385.9734,-122 1244.0266,-122 1244.0266,-86 1385.9734,-86 1385.9734,-122"/>
<text text-anchor="middle" x="1315" y="-99.8" font-family="Times,serif" font-size="14.00" fill="#000000">DashboardComponent</text>
</g>
<!-- SharedModule -->
<g id="node10" class="node">
<title>SharedModule</title>
<polygon fill="#8dd3c7" stroke="#000000" points="723.4231,-187 720.4231,-191 699.4231,-191 696.4231,-187 624.5769,-187 624.5769,-151 723.4231,-151 723.4231,-187"/>
<text text-anchor="middle" x="674" y="-164.8" font-family="Times,serif" font-size="14.00" fill="#000000">SharedModule</text>
</g>
<!-- DashboardComponent&#45;&gt;SharedModule -->
<g id="edge1" class="edge">
<title>DashboardComponent&#45;&gt;SharedModule</title>
<path fill="none" stroke="#000000" d="M1251.875,-122.2222C1251.875,-140.8285 1251.875,-167 1251.875,-167 1251.875,-167 733.2693,-167 733.2693,-167"/>
<polygon fill="#000000" stroke="#000000" points="733.2693,-163.5001 723.2693,-167 733.2693,-170.5001 733.2693,-163.5001"/>
</g>
<!-- HeaderComponent -->
<g id="node2" class="node">
<title>HeaderComponent</title>
<polygon fill="#ffffb3" stroke="#000000" points="1225.7437,-122 1104.2563,-122 1104.2563,-86 1225.7437,-86 1225.7437,-122"/>
<text text-anchor="middle" x="1165" y="-99.8" font-family="Times,serif" font-size="14.00" fill="#000000">HeaderComponent</text>
</g>
<!-- HeaderComponent&#45;&gt;SharedModule -->
<g id="edge2" class="edge">
<title>HeaderComponent&#45;&gt;SharedModule</title>
<path fill="none" stroke="#000000" d="M1109.1958,-122.0225C1109.1958,-139.3734 1109.1958,-163 1109.1958,-163 1109.1958,-163 733.4988,-163 733.4988,-163"/>
<polygon fill="#000000" stroke="#000000" points="733.4988,-159.5001 723.4988,-163 733.4988,-166.5001 733.4988,-159.5001"/>
</g>
<!-- ProfileInfoComponent -->
<g id="node3" class="node">
<title>ProfileInfoComponent</title>
<polygon fill="#ffffb3" stroke="#000000" points="1086.2534,-122 943.7466,-122 943.7466,-86 1086.2534,-86 1086.2534,-122"/>
<text text-anchor="middle" x="1015" y="-99.8" font-family="Times,serif" font-size="14.00" fill="#000000">ProfileInfoComponent</text>
</g>
<!-- ProfileInfoComponent&#45;&gt;SharedModule -->
<g id="edge3" class="edge">
<title>ProfileInfoComponent&#45;&gt;SharedModule</title>
<path fill="none" stroke="#000000" d="M1040.8755,-122.0091C1040.8755,-138.0494 1040.8755,-159 1040.8755,-159 1040.8755,-159 733.4785,-159 733.4785,-159"/>
<polygon fill="#000000" stroke="#000000" points="733.4785,-155.5001 723.4785,-159 733.4784,-162.5001 733.4785,-155.5001"/>
</g>
<!-- ProfileDataComponent -->
<g id="node4" class="node">
<title>ProfileDataComponent</title>
<polygon fill="#ffffb3" stroke="#000000" points="925.8585,-122 780.1415,-122 780.1415,-86 925.8585,-86 925.8585,-122"/>
<text text-anchor="middle" x="853" y="-99.8" font-family="Times,serif" font-size="14.00" fill="#000000">ProfileDataComponent</text>
</g>
<!-- ProfileDataComponent&#45;&gt;SharedModule -->
<g id="edge4" class="edge">
<title>ProfileDataComponent&#45;&gt;SharedModule</title>
<path fill="none" stroke="#000000" d="M878.0597,-122.1243C878.0597,-136.7832 878.0597,-155 878.0597,-155 878.0597,-155 733.3972,-155 733.3972,-155"/>
<polygon fill="#000000" stroke="#000000" points="733.3972,-151.5001 723.3972,-155 733.3971,-158.5001 733.3972,-151.5001"/>
</g>
<!-- JobManipulationComponent -->
<g id="node5" class="node">
<title>JobManipulationComponent</title>
<polygon fill="#ffffb3" stroke="#000000" points="762.2133,-122 585.7867,-122 585.7867,-86 762.2133,-86 762.2133,-122"/>
<text text-anchor="middle" x="674" y="-99.8" font-family="Times,serif" font-size="14.00" fill="#000000">JobManipulationComponent</text>
</g>
<!-- JobManipulationComponent&#45;&gt;SharedModule -->
<g id="edge5" class="edge">
<title>JobManipulationComponent&#45;&gt;SharedModule</title>
<path fill="none" stroke="#000000" d="M674,-122.1061C674,-122.1061 674,-140.991 674,-140.991"/>
<polygon fill="#000000" stroke="#000000" points="670.5001,-140.9909 674,-150.991 677.5001,-140.991 670.5001,-140.9909"/>
</g>
<!-- EditProfileComponent -->
<g id="node6" class="node">
<title>EditProfileComponent</title>
<polygon fill="#ffffb3" stroke="#000000" points="568.266,-122 425.734,-122 425.734,-86 568.266,-86 568.266,-122"/>
<text text-anchor="middle" x="497" y="-99.8" font-family="Times,serif" font-size="14.00" fill="#000000">EditProfileComponent</text>
</g>
<!-- EditProfileComponent&#45;&gt;SharedModule -->
<g id="edge6" class="edge">
<title>EditProfileComponent&#45;&gt;SharedModule</title>
<path fill="none" stroke="#000000" d="M519.2943,-122.1243C519.2943,-136.7832 519.2943,-155 519.2943,-155 519.2943,-155 614.6248,-155 614.6248,-155"/>
<polygon fill="#000000" stroke="#000000" points="614.6248,-158.5001 624.6248,-155 614.6248,-151.5001 614.6248,-158.5001"/>
</g>
<!-- FullNamePipe -->
<g id="node7" class="node">
<title>FullNamePipe</title>
<polygon fill="#ffffb3" stroke="#000000" points="407.3781,-122 310.6219,-122 310.6219,-86 407.3781,-86 407.3781,-122"/>
<text text-anchor="middle" x="359" y="-99.8" font-family="Times,serif" font-size="14.00" fill="#000000">FullNamePipe</text>
</g>
<!-- FullNamePipe&#45;&gt;SharedModule -->
<g id="edge7" class="edge">
<title>FullNamePipe&#45;&gt;SharedModule</title>
<path fill="none" stroke="#000000" d="M371.6463,-122.0091C371.6463,-138.0494 371.6463,-159 371.6463,-159 371.6463,-159 614.7487,-159 614.7487,-159"/>
<polygon fill="#000000" stroke="#000000" points="614.7488,-162.5001 624.7487,-159 614.7487,-155.5001 614.7488,-162.5001"/>
</g>
<!-- ShortenPipe -->
<g id="node8" class="node">
<title>ShortenPipe</title>
<polygon fill="#ffffb3" stroke="#000000" points="292.4373,-122 207.5627,-122 207.5627,-86 292.4373,-86 292.4373,-122"/>
<text text-anchor="middle" x="250" y="-99.8" font-family="Times,serif" font-size="14.00" fill="#000000">ShortenPipe</text>
</g>
<!-- ShortenPipe&#45;&gt;SharedModule -->
<g id="edge8" class="edge">
<title>ShortenPipe&#45;&gt;SharedModule</title>
<path fill="none" stroke="#000000" d="M288.0931,-122.0225C288.0931,-139.3734 288.0931,-163 288.0931,-163 288.0931,-163 614.7326,-163 614.7326,-163"/>
<polygon fill="#000000" stroke="#000000" points="614.7327,-166.5001 624.7326,-163 614.7326,-159.5001 614.7327,-166.5001"/>
</g>
<!-- TitleUnderlineDirective -->
<g id="node9" class="node">
<title>TitleUnderlineDirective</title>
<polygon fill="#ffffb3" stroke="#000000" points="190.5002,-122 39.4998,-122 39.4998,-86 190.5002,-86 190.5002,-122"/>
<text text-anchor="middle" x="115" y="-99.8" font-family="Times,serif" font-size="14.00" fill="#000000">TitleUnderlineDirective</text>
</g>
<!-- TitleUnderlineDirective&#45;&gt;SharedModule -->
<g id="edge9" class="edge">
<title>TitleUnderlineDirective&#45;&gt;SharedModule</title>
<path fill="none" stroke="#000000" d="M184.1247,-122.2222C184.1247,-140.8285 184.1247,-167 184.1247,-167 184.1247,-167 614.786,-167 614.786,-167"/>
<polygon fill="#000000" stroke="#000000" points="614.786,-170.5001 624.786,-167 614.7859,-163.5001 614.786,-170.5001"/>
</g>
<!-- HeaderComponent  -->
<g id="node11" class="node">
<title>HeaderComponent </title>
<polygon fill="#fb8072" stroke="#000000" points="1402.7436,-252 1277.2564,-252 1277.2564,-216 1402.7436,-216 1402.7436,-252"/>
<text text-anchor="middle" x="1340" y="-229.8" font-family="Times,serif" font-size="14.00" fill="#000000">HeaderComponent </text>
</g>
<!-- SharedModule&#45;&gt;HeaderComponent  -->
<g id="edge10" class="edge">
<title>SharedModule&#45;&gt;HeaderComponent </title>
<path fill="none" stroke="#000000" stroke-dasharray="5,2" d="M723.4331,-171C876.3847,-171 1331.6825,-171 1331.6825,-171 1331.6825,-171 1331.6825,-205.7778 1331.6825,-205.7778"/>
<polygon fill="#000000" stroke="#000000" points="1328.1826,-205.7778 1331.6825,-215.7778 1335.1826,-205.7778 1328.1826,-205.7778"/>
</g>
<!-- DashboardComponent  -->
<g id="node12" class="node">
<title>DashboardComponent </title>
<polygon fill="#fb8072" stroke="#000000" points="1259.9742,-252 1114.0258,-252 1114.0258,-216 1259.9742,-216 1259.9742,-252"/>
<text text-anchor="middle" x="1187" y="-229.8" font-family="Times,serif" font-size="14.00" fill="#000000">DashboardComponent </text>
</g>
<!-- SharedModule&#45;&gt;DashboardComponent  -->
<g id="edge11" class="edge">
<title>SharedModule&#45;&gt;DashboardComponent </title>
<path fill="none" stroke="#000000" stroke-dasharray="5,2" d="M723.3784,-175C848.8529,-175 1170.0675,-175 1170.0675,-175 1170.0675,-175 1170.0675,-205.9775 1170.0675,-205.9775"/>
<polygon fill="#000000" stroke="#000000" points="1166.5676,-205.9774 1170.0675,-215.9775 1173.5676,-205.9775 1166.5676,-205.9774"/>
</g>
<!-- ProfileInfoComponent  -->
<g id="node13" class="node">
<title>ProfileInfoComponent </title>
<polygon fill="#fb8072" stroke="#000000" points="1096.2534,-252 949.7466,-252 949.7466,-216 1096.2534,-216 1096.2534,-252"/>
<text text-anchor="middle" x="1023" y="-229.8" font-family="Times,serif" font-size="14.00" fill="#000000">ProfileInfoComponent </text>
</g>
<!-- SharedModule&#45;&gt;ProfileInfoComponent  -->
<g id="edge12" class="edge">
<title>SharedModule&#45;&gt;ProfileInfoComponent </title>
<path fill="none" stroke="#000000" stroke-dasharray="5,2" d="M723.5105,-179C813.6586,-179 995.3745,-179 995.3745,-179 995.3745,-179 995.3745,-205.9909 995.3745,-205.9909"/>
<polygon fill="#000000" stroke="#000000" points="991.8746,-205.9909 995.3745,-215.9909 998.8746,-205.991 991.8746,-205.9909"/>
</g>
<!-- ProfileDataComponent  -->
<g id="node14" class="node">
<title>ProfileDataComponent </title>
<polygon fill="#fb8072" stroke="#000000" points="931.8588,-252 782.1412,-252 782.1412,-216 931.8588,-216 931.8588,-252"/>
<text text-anchor="middle" x="857" y="-229.8" font-family="Times,serif" font-size="14.00" fill="#000000">ProfileDataComponent </text>
</g>
<!-- SharedModule&#45;&gt;ProfileDataComponent  -->
<g id="edge13" class="edge">
<title>SharedModule&#45;&gt;ProfileDataComponent </title>
<path fill="none" stroke="#000000" stroke-dasharray="5,2" d="M723.4196,-183C769.1784,-183 830.1903,-183 830.1903,-183 830.1903,-183 830.1903,-205.8757 830.1903,-205.8757"/>
<polygon fill="#000000" stroke="#000000" points="826.6904,-205.8757 830.1903,-215.8757 833.6904,-205.8757 826.6904,-205.8757"/>
</g>
<!-- JobManipulationComponent  -->
<g id="node15" class="node">
<title>JobManipulationComponent </title>
<polygon fill="#fb8072" stroke="#000000" points="763.7134,-252 584.2866,-252 584.2866,-216 763.7134,-216 763.7134,-252"/>
<text text-anchor="middle" x="674" y="-229.8" font-family="Times,serif" font-size="14.00" fill="#000000">JobManipulationComponent </text>
</g>
<!-- SharedModule&#45;&gt;JobManipulationComponent  -->
<g id="edge14" class="edge">
<title>SharedModule&#45;&gt;JobManipulationComponent </title>
<path fill="none" stroke="#000000" stroke-dasharray="5,2" d="M674,-187.1061C674,-187.1061 674,-205.991 674,-205.991"/>
<polygon fill="#000000" stroke="#000000" points="670.5001,-205.9909 674,-215.991 677.5001,-205.991 670.5001,-205.9909"/>
</g>
<!-- EditProfileComponent  -->
<g id="node16" class="node">
<title>EditProfileComponent </title>
<polygon fill="#fb8072" stroke="#000000" points="566.266,-252 419.734,-252 419.734,-216 566.266,-216 566.266,-252"/>
<text text-anchor="middle" x="493" y="-229.8" font-family="Times,serif" font-size="14.00" fill="#000000">EditProfileComponent </text>
</g>
<!-- SharedModule&#45;&gt;EditProfileComponent  -->
<g id="edge15" class="edge">
<title>SharedModule&#45;&gt;EditProfileComponent </title>
<path fill="none" stroke="#000000" stroke-dasharray="5,2" d="M624.6967,-183C565.0298,-183 472.4557,-183 472.4557,-183 472.4557,-183 472.4557,-205.8757 472.4557,-205.8757"/>
<polygon fill="#000000" stroke="#000000" points="468.9558,-205.8757 472.4557,-215.8757 475.9558,-205.8757 468.9558,-205.8757"/>
</g>
<!-- FullNamePipe  -->
<g id="node17" class="node">
<title>FullNamePipe </title>
<polygon fill="#fb8072" stroke="#000000" points="402.3787,-252 301.6213,-252 301.6213,-216 402.3787,-216 402.3787,-252"/>
<text text-anchor="middle" x="352" y="-229.8" font-family="Times,serif" font-size="14.00" fill="#000000">FullNamePipe </text>
</g>
<!-- SharedModule&#45;&gt;FullNamePipe  -->
<g id="edge16" class="edge">
<title>SharedModule&#45;&gt;FullNamePipe </title>
<path fill="none" stroke="#000000" stroke-dasharray="5,2" d="M624.5215,-179C531.7869,-179 341.1037,-179 341.1037,-179 341.1037,-179 341.1037,-205.9909 341.1037,-205.9909"/>
<polygon fill="#000000" stroke="#000000" points="337.6038,-205.9909 341.1037,-215.9909 344.6038,-205.991 337.6038,-205.9909"/>
</g>
<!-- ShortenPipe  -->
<g id="node18" class="node">
<title>ShortenPipe </title>
<polygon fill="#fb8072" stroke="#000000" points="283.9362,-252 196.0638,-252 196.0638,-216 283.9362,-216 283.9362,-252"/>
<text text-anchor="middle" x="240" y="-229.8" font-family="Times,serif" font-size="14.00" fill="#000000">ShortenPipe </text>
</g>
<!-- SharedModule&#45;&gt;ShortenPipe  -->
<g id="edge17" class="edge">
<title>SharedModule&#45;&gt;ShortenPipe </title>
<path fill="none" stroke="#000000" stroke-dasharray="5,2" d="M624.4704,-175C511.7746,-175 245.875,-175 245.875,-175 245.875,-175 245.875,-205.9775 245.875,-205.9775"/>
<polygon fill="#000000" stroke="#000000" points="242.3751,-205.9774 245.875,-215.9775 249.3751,-205.9775 242.3751,-205.9774"/>
</g>
<!-- TitleUnderlineDirective  -->
<g id="node19" class="node">
<title>TitleUnderlineDirective </title>
<polygon fill="#fb8072" stroke="#000000" points="177.9994,-252 24.0006,-252 24.0006,-216 177.9994,-216 177.9994,-252"/>
<text text-anchor="middle" x="101" y="-229.8" font-family="Times,serif" font-size="14.00" fill="#000000">TitleUnderlineDirective </text>
</g>
<!-- SharedModule&#45;&gt;TitleUnderlineDirective  -->
<g id="edge18" class="edge">
<title>SharedModule&#45;&gt;TitleUnderlineDirective </title>
<path fill="none" stroke="#000000" stroke-dasharray="5,2" d="M624.3442,-171C486.4433,-171 108.875,-171 108.875,-171 108.875,-171 108.875,-205.7778 108.875,-205.7778"/>
<polygon fill="#000000" stroke="#000000" points="105.3751,-205.7778 108.875,-215.7778 112.3751,-205.7778 105.3751,-205.7778"/>
</g>
</g>
</svg>
