<?xml version="1.0" encoding="UTF-8" standalone="no"?>
<!DOCTYPE svg PUBLIC "-//W3C//DTD SVG 1.1//EN"
 "http://www.w3.org/Graphics/SVG/1.1/DTD/svg11.dtd">
<!-- Generated by graphviz version 2.40.1 (20161225.0304)
 -->
<!-- Title: dependencies Pages: 1 -->
<svg width="6525pt" height="290pt"
 viewBox="0.00 0.00 6525.00 290.00" xmlns="http://www.w3.org/2000/svg" xmlns:xlink="http://www.w3.org/1999/xlink">
<g id="graph0" class="graph" transform="scale(1 1) rotate(0) translate(4 286)">
<title>dependencies</title>
<polygon fill="#ffffff" stroke="transparent" points="-4,4 -4,-286 6521,-286 6521,4 -4,4"/>
<text text-anchor="start" x="3237.5091" y="-42.4" font-family="sans-serif" font-weight="bold" font-size="14.00" fill="#000000">Legend</text>
<polygon fill="#ffffb3" stroke="transparent" points="3024.5,-10 3024.5,-30 3044.5,-30 3044.5,-10 3024.5,-10"/>
<text text-anchor="start" x="3048.129" y="-15.4" font-family="sans-serif" font-size="14.00" fill="#000000"> &#160;Declarations</text>
<polygon fill="#8dd3c7" stroke="transparent" points="3137.5,-10 3137.5,-30 3157.5,-30 3157.5,-10 3137.5,-10"/>
<text text-anchor="start" x="3161.2251" y="-15.4" font-family="sans-serif" font-size="14.00" fill="#000000"> &#160;Module</text>
<polygon fill="#80b1d3" stroke="transparent" points="3223.5,-10 3223.5,-30 3243.5,-30 3243.5,-10 3223.5,-10"/>
<text text-anchor="start" x="3247.2812" y="-15.4" font-family="sans-serif" font-size="14.00" fill="#000000"> &#160;Bootstrap</text>
<polygon fill="#fdb462" stroke="transparent" points="3320.5,-10 3320.5,-30 3340.5,-30 3340.5,-10 3320.5,-10"/>
<text text-anchor="start" x="3344.1732" y="-15.4" font-family="sans-serif" font-size="14.00" fill="#000000"> &#160;Providers</text>
<polygon fill="#fb8072" stroke="transparent" points="3416.5,-10 3416.5,-30 3436.5,-30 3436.5,-10 3416.5,-10"/>
<text text-anchor="start" x="3440.2258" y="-15.4" font-family="sans-serif" font-size="14.00" fill="#000000"> &#160;Exports</text>
<g id="clust1" class="cluster">
<title>cluster_AppModule</title>
<polygon fill="none" stroke="#000000" stroke-dasharray="1,5" points="8,-70 8,-274 981,-274 981,-70 8,-70"/>
</g>
<g id="clust2" class="cluster">
<title>cluster_AppModule_declarations</title>
<polygon fill="none" stroke="#000000" points="629,-78 629,-130 751,-130 751,-78 629,-78"/>
</g>
<g id="clust4" class="cluster">
<title>cluster_AppModule_imports</title>
<polygon fill="none" stroke="#000000" points="759,-78 759,-130 973,-130 973,-78 759,-78"/>
</g>
<g id="clust6" class="cluster">
<title>cluster_AppModule_bootstrap</title>
<polygon fill="none" stroke="#000000" points="493,-214 493,-266 617,-266 617,-214 493,-214"/>
</g>
<g id="clust7" class="cluster">
<title>cluster_AppModule_providers</title>
<polygon fill="none" stroke="#000000" points="16,-78 16,-130 621,-130 621,-78 16,-78"/>
</g>
<g id="clust8" class="cluster">
<title>cluster_ApplicantModule</title>
<polygon fill="none" stroke="#000000" stroke-dasharray="1,5" points="3778,-70 3778,-198 4290,-198 4290,-70 3778,-70"/>
</g>
<g id="clust9" class="cluster">
<title>cluster_ApplicantModule_declarations</title>
<polygon fill="none" stroke="#000000" points="4092,-78 4092,-130 4282,-130 4282,-78 4092,-78"/>
</g>
<g id="clust11" class="cluster">
<title>cluster_ApplicantModule_imports</title>
<polygon fill="none" stroke="#000000" points="3956,-78 3956,-130 4084,-130 4084,-78 3956,-78"/>
</g>
<g id="clust14" class="cluster">
<title>cluster_ApplicantModule_providers</title>
<polygon fill="none" stroke="#000000" points="3786,-78 3786,-130 3948,-130 3948,-78 3786,-78"/>
</g>
<g id="clust15" class="cluster">
<title>cluster_AuthenticationModule</title>
<polygon fill="none" stroke="#000000" stroke-dasharray="1,5" points="4298,-70 4298,-198 5234,-198 5234,-70 4298,-70"/>
</g>
<g id="clust16" class="cluster">
<title>cluster_AuthenticationModule_declarations</title>
<polygon fill="none" stroke="#000000" points="4594,-78 4594,-130 5226,-130 5226,-78 4594,-78"/>
</g>
<g id="clust21" class="cluster">
<title>cluster_AuthenticationModule_imports</title>
<polygon fill="none" stroke="#000000" points="4484,-78 4484,-130 4586,-130 4586,-78 4484,-78"/>
</g>
<g id="clust24" class="cluster">
<title>cluster_AuthenticationModule_providers</title>
<polygon fill="none" stroke="#000000" points="4306,-78 4306,-130 4476,-130 4476,-78 4306,-78"/>
</g>
<g id="clust25" class="cluster">
<title>cluster_CompanyModule</title>
<polygon fill="none" stroke="#000000" stroke-dasharray="1,5" points="5242,-70 5242,-198 5934,-198 5934,-70 5242,-70"/>
</g>
<g id="clust26" class="cluster">
<title>cluster_CompanyModule_declarations</title>
<polygon fill="none" stroke="#000000" points="5556,-78 5556,-130 5926,-130 5926,-78 5556,-78"/>
</g>
<g id="clust29" class="cluster">
<title>cluster_CompanyModule_imports</title>
<polygon fill="none" stroke="#000000" points="5420,-78 5420,-130 5548,-130 5548,-78 5420,-78"/>
</g>
<g id="clust32" class="cluster">
<title>cluster_CompanyModule_providers</title>
<polygon fill="none" stroke="#000000" points="5250,-78 5250,-130 5412,-130 5412,-78 5250,-78"/>
</g>
<g id="clust33" class="cluster">
<title>cluster_FrontModule</title>
<polygon fill="none" stroke="#000000" stroke-dasharray="1,5" points="5942,-70 5942,-198 6509,-198 6509,-70 5942,-70"/>
</g>
<g id="clust34" class="cluster">
<title>cluster_FrontModule_declarations</title>
<polygon fill="none" stroke="#000000" points="6062,-78 6062,-130 6501,-130 6501,-78 6062,-78"/>
</g>
<g id="clust38" class="cluster">
<title>cluster_FrontModule_imports</title>
<polygon fill="none" stroke="#000000" points="5950,-78 5950,-130 6054,-130 6054,-78 5950,-78"/>
</g>
<g id="clust42" class="cluster">
<title>cluster_SharedModule</title>
<polygon fill="none" stroke="#000000" stroke-dasharray="1,5" points="989,-138 989,-206 3770,-206 3770,-138 989,-138"/>
</g>
<g id="clust43" class="cluster">
<title>cluster_SharedModule_declarations</title>
<polygon fill="none" stroke="#000000" points="2400,-146 2400,-198 3762,-198 3762,-146 2400,-146"/>
</g>
<g id="clust54" class="cluster">
<title>cluster_SharedModule_exports</title>
<polygon fill="none" stroke="#000000" points="997,-146 997,-198 2392,-198 2392,-146 997,-146"/>
</g>
<!-- AppComponent -->
<g id="node1" class="node">
<title>AppComponent</title>
<polygon fill="#ffffb3" stroke="#000000" points="742.9399,-122 637.0601,-122 637.0601,-86 742.9399,-86 742.9399,-122"/>
<text text-anchor="middle" x="690" y="-99.8" font-family="Times,serif" font-size="14.00" fill="#000000">AppComponent</text>
</g>
<!-- AppModule -->
<g id="node2" class="node">
<title>AppModule</title>
<polygon fill="#8dd3c7" stroke="#000000" points="596.6571,-190 593.6571,-194 572.6571,-194 569.6571,-190 513.3429,-190 513.3429,-154 596.6571,-154 596.6571,-190"/>
<text text-anchor="middle" x="555" y="-167.8" font-family="Times,serif" font-size="14.00" fill="#000000">AppModule</text>
</g>
<!-- AppComponent&#45;&gt;AppModule -->
<g id="edge1" class="edge">
<title>AppComponent&#45;&gt;AppModule</title>
<path fill="none" stroke="#000000" d="M690,-122.0225C690,-139.3734 690,-163 690,-163 690,-163 606.9748,-163 606.9748,-163"/>
<polygon fill="#000000" stroke="#000000" points="606.9749,-159.5001 596.9748,-163 606.9748,-166.5001 606.9749,-159.5001"/>
</g>
<!-- AppComponent  -->
<g id="node5" class="node">
<title>AppComponent </title>
<polygon fill="#80b1d3" stroke="#000000" points="609.439,-258 500.561,-258 500.561,-222 609.439,-222 609.439,-258"/>
<text text-anchor="middle" x="555" y="-235.8" font-family="Times,serif" font-size="14.00" fill="#000000">AppComponent </text>
</g>
<!-- AppModule&#45;&gt;AppComponent  -->
<g id="edge4" class="edge">
<title>AppModule&#45;&gt;AppComponent </title>
<path fill="none" stroke="#000000" stroke-dasharray="1,5" d="M555,-190.2228C555,-190.2228 555,-211.7269 555,-211.7269"/>
<polygon fill="#000000" stroke="#000000" points="551.5001,-211.7269 555,-221.7269 558.5001,-211.727 551.5001,-211.7269"/>
</g>
<!-- appRouting -->
<g id="node3" class="node">
<title>appRouting</title>
<polygon fill="#8dd3c7" stroke="#000000" points="848.8331,-122 845.8331,-126 824.8331,-126 821.8331,-122 767.1669,-122 767.1669,-86 848.8331,-86 848.8331,-122"/>
<text text-anchor="middle" x="808" y="-99.8" font-family="Times,serif" font-size="14.00" fill="#000000">appRouting</text>
</g>
<!-- appRouting&#45;&gt;AppModule -->
<g id="edge2" class="edge">
<title>appRouting&#45;&gt;AppModule</title>
<path fill="none" stroke="#000000" d="M808,-122.2228C808,-142.3652 808,-172 808,-172 808,-172 606.7778,-172 606.7778,-172"/>
<polygon fill="#000000" stroke="#000000" points="606.7778,-168.5001 596.7778,-172 606.7778,-175.5001 606.7778,-168.5001"/>
</g>
<!-- SharedModule -->
<g id="node4" class="node">
<title>SharedModule</title>
<polygon fill="#8dd3c7" stroke="#000000" points="965.4231,-122 962.4231,-126 941.4231,-126 938.4231,-122 866.5769,-122 866.5769,-86 965.4231,-86 965.4231,-122"/>
<text text-anchor="middle" x="916" y="-99.8" font-family="Times,serif" font-size="14.00" fill="#000000">SharedModule</text>
</g>
<!-- SharedModule&#45;&gt;AppModule -->
<g id="edge3" class="edge">
<title>SharedModule&#45;&gt;AppModule</title>
<path fill="none" stroke="#000000" d="M945.5267,-122.2479C945.5267,-145.0179 945.5267,-181 945.5267,-181 945.5267,-181 606.7932,-181 606.7932,-181"/>
<polygon fill="#000000" stroke="#000000" points="606.7932,-177.5001 596.7932,-181 606.7932,-184.5001 606.7932,-177.5001"/>
</g>
<!-- ApplicantModule -->
<g id="node11" class="node">
<title>ApplicantModule</title>
<polygon fill="#8dd3c7" stroke="#000000" points="4000.2577,-190 3997.2577,-194 3976.2577,-194 3973.2577,-190 3885.7423,-190 3885.7423,-154 4000.2577,-154 4000.2577,-190"/>
<text text-anchor="middle" x="3943" y="-167.8" font-family="Times,serif" font-size="14.00" fill="#000000">ApplicantModule</text>
</g>
<!-- SharedModule&#45;&gt;ApplicantModule -->
<g id="edge10" class="edge">
<title>SharedModule&#45;&gt;ApplicantModule</title>
<path fill="none" stroke="#000000" d="M965.3049,-88C1343.8322,-88 3774.0011,-88 3774.0011,-88 3774.0011,-88 3774.0011,-172 3774.0011,-172 3774.0011,-172 3875.3128,-172 3875.3128,-172"/>
<polygon fill="#000000" stroke="#000000" points="3875.3129,-175.5001 3885.3128,-172 3875.3128,-168.5001 3875.3129,-175.5001"/>
</g>
<!-- AuthenticationModule -->
<g id="node18" class="node">
<title>AuthenticationModule</title>
<polygon fill="#8dd3c7" stroke="#000000" points="4753.2534,-190 4750.2534,-194 4729.2534,-194 4726.2534,-190 4610.7466,-190 4610.7466,-154 4753.2534,-154 4753.2534,-190"/>
<text text-anchor="middle" x="4682" y="-167.8" font-family="Times,serif" font-size="14.00" fill="#000000">AuthenticationModule</text>
</g>
<!-- SharedModule&#45;&gt;AuthenticationModule -->
<g id="edge18" class="edge">
<title>SharedModule&#45;&gt;AuthenticationModule</title>
<path fill="none" stroke="#000000" d="M886.4733,-122.0555C886.4733,-133.439 886.4733,-146 886.4733,-146 886.4733,-146 4658.2078,-146 4658.2078,-146 4658.2078,-146 4658.2078,-146.7942 4658.2078,-146.7942"/>
<polygon fill="#000000" stroke="#000000" points="4654.7079,-143.9421 4658.2078,-153.9421 4661.7079,-143.9422 4654.7079,-143.9421"/>
</g>
<!-- CompanyModule -->
<g id="node23" class="node">
<title>CompanyModule</title>
<polygon fill="#8dd3c7" stroke="#000000" points="5540.9916,-190 5537.9916,-194 5516.9916,-194 5513.9916,-190 5427.0084,-190 5427.0084,-154 5540.9916,-154 5540.9916,-190"/>
<text text-anchor="middle" x="5484" y="-167.8" font-family="Times,serif" font-size="14.00" fill="#000000">CompanyModule</text>
</g>
<!-- SharedModule&#45;&gt;CompanyModule -->
<g id="edge22" class="edge">
<title>SharedModule&#45;&gt;CompanyModule</title>
<path fill="none" stroke="#000000" d="M906.1578,-122.1944C906.1578,-130.2782 906.1578,-138 906.1578,-138 906.1578,-138 5465.2604,-138 5465.2604,-138 5465.2604,-138 5465.2604,-143.8056 5465.2604,-143.8056"/>
<polygon fill="#000000" stroke="#000000" points="5461.7605,-143.8055 5465.2604,-153.8056 5468.7605,-143.8056 5461.7605,-143.8055"/>
</g>
<!-- FrontModule -->
<g id="node29" class="node">
<title>FrontModule</title>
<polygon fill="#8dd3c7" stroke="#000000" points="6181.8837,-190 6178.8837,-194 6157.8837,-194 6154.8837,-190 6092.1163,-190 6092.1163,-154 6181.8837,-154 6181.8837,-190"/>
<text text-anchor="middle" x="6137" y="-167.8" font-family="Times,serif" font-size="14.00" fill="#000000">FrontModule</text>
</g>
<!-- SharedModule&#45;&gt;FrontModule -->
<g id="edge29" class="edge">
<title>SharedModule&#45;&gt;FrontModule</title>
<path fill="none" stroke="#000000" d="M925.8422,-122.0579C925.8422,-126.4945 925.8422,-130 925.8422,-130 925.8422,-130 6122.0194,-130 6122.0194,-130 6122.0194,-130 6122.0194,-143.9445 6122.0194,-143.9445"/>
<polygon fill="#000000" stroke="#000000" points="6118.5195,-143.9444 6122.0194,-153.9445 6125.5195,-143.9445 6118.5195,-143.9444"/>
</g>
<!-- HeaderComponent  -->
<g id="node40" class="node">
<title>HeaderComponent </title>
<polygon fill="#fb8072" stroke="#000000" points="2211.7436,-190 2086.2564,-190 2086.2564,-154 2211.7436,-154 2211.7436,-190"/>
<text text-anchor="middle" x="2149" y="-167.8" font-family="Times,serif" font-size="14.00" fill="#000000">HeaderComponent </text>
</g>
<!-- SharedModule&#45;&gt;HeaderComponent  -->
<g id="edge39" class="edge">
<title>SharedModule&#45;&gt;HeaderComponent </title>
<path fill="none" stroke="#000000" stroke-dasharray="5,2" d="M965.4784,-108C1195.4783,-108 2149,-108 2149,-108 2149,-108 2149,-143.8314 2149,-143.8314"/>
<polygon fill="#000000" stroke="#000000" points="2145.5001,-143.8313 2149,-153.8314 2152.5001,-143.8314 2145.5001,-143.8313"/>
</g>
<!-- DashboardComponent  -->
<g id="node41" class="node">
<title>DashboardComponent </title>
<polygon fill="#fb8072" stroke="#000000" points="2068.9742,-190 1923.0258,-190 1923.0258,-154 2068.9742,-154 2068.9742,-190"/>
<text text-anchor="middle" x="1996" y="-167.8" font-family="Times,serif" font-size="14.00" fill="#000000">DashboardComponent </text>
</g>
<!-- SharedModule&#45;&gt;DashboardComponent  -->
<g id="edge40" class="edge">
<title>SharedModule&#45;&gt;DashboardComponent </title>
<path fill="none" stroke="#000000" stroke-dasharray="5,2" d="M965.2118,-110C1176.4913,-110 1996,-110 1996,-110 1996,-110 1996,-143.7333 1996,-143.7333"/>
<polygon fill="#000000" stroke="#000000" points="1992.5001,-143.7333 1996,-153.7333 1999.5001,-143.7333 1992.5001,-143.7333"/>
</g>
<!-- ProfileInfoComponent  -->
<g id="node42" class="node">
<title>ProfileInfoComponent </title>
<polygon fill="#fb8072" stroke="#000000" points="1905.2534,-190 1758.7466,-190 1758.7466,-154 1905.2534,-154 1905.2534,-190"/>
<text text-anchor="middle" x="1832" y="-167.8" font-family="Times,serif" font-size="14.00" fill="#000000">ProfileInfoComponent </text>
</g>
<!-- SharedModule&#45;&gt;ProfileInfoComponent  -->
<g id="edge41" class="edge">
<title>SharedModule&#45;&gt;ProfileInfoComponent </title>
<path fill="none" stroke="#000000" stroke-dasharray="5,2" d="M965.2481,-112C1155.5107,-112 1832,-112 1832,-112 1832,-112 1832,-143.998 1832,-143.998"/>
<polygon fill="#000000" stroke="#000000" points="1828.5001,-143.998 1832,-153.998 1835.5001,-143.9981 1828.5001,-143.998"/>
</g>
<!-- ProfileDataComponent  -->
<g id="node43" class="node">
<title>ProfileDataComponent </title>
<polygon fill="#fb8072" stroke="#000000" points="1740.8588,-190 1591.1412,-190 1591.1412,-154 1740.8588,-154 1740.8588,-190"/>
<text text-anchor="middle" x="1666" y="-167.8" font-family="Times,serif" font-size="14.00" fill="#000000">ProfileDataComponent </text>
</g>
<!-- SharedModule&#45;&gt;ProfileDataComponent  -->
<g id="edge42" class="edge">
<title>SharedModule&#45;&gt;ProfileDataComponent </title>
<path fill="none" stroke="#000000" stroke-dasharray="5,2" d="M965.4996,-113C1132.6823,-113 1666,-113 1666,-113 1666,-113 1666,-143.9775 1666,-143.9775"/>
<polygon fill="#000000" stroke="#000000" points="1662.5001,-143.9774 1666,-153.9775 1669.5001,-143.9775 1662.5001,-143.9774"/>
</g>
<!-- JobManipulationComponent  -->
<g id="node44" class="node">
<title>JobManipulationComponent </title>
<polygon fill="#fb8072" stroke="#000000" points="1572.7134,-190 1393.2866,-190 1393.2866,-154 1572.7134,-154 1572.7134,-190"/>
<text text-anchor="middle" x="1483" y="-167.8" font-family="Times,serif" font-size="14.00" fill="#000000">JobManipulationComponent </text>
</g>
<!-- SharedModule&#45;&gt;JobManipulationComponent  -->
<g id="edge43" class="edge">
<title>SharedModule&#45;&gt;JobManipulationComponent </title>
<path fill="none" stroke="#000000" stroke-dasharray="5,2" d="M965.3257,-115C1103.2733,-115 1483,-115 1483,-115 1483,-115 1483,-143.9648 1483,-143.9648"/>
<polygon fill="#000000" stroke="#000000" points="1479.5001,-143.9648 1483,-153.9648 1486.5001,-143.9649 1479.5001,-143.9648"/>
</g>
<!-- EditProfileComponent  -->
<g id="node45" class="node">
<title>EditProfileComponent </title>
<polygon fill="#fb8072" stroke="#000000" points="1375.266,-190 1228.734,-190 1228.734,-154 1375.266,-154 1375.266,-190"/>
<text text-anchor="middle" x="1302" y="-167.8" font-family="Times,serif" font-size="14.00" fill="#000000">EditProfileComponent </text>
</g>
<!-- SharedModule&#45;&gt;EditProfileComponent  -->
<g id="edge44" class="edge">
<title>SharedModule&#45;&gt;EditProfileComponent </title>
<path fill="none" stroke="#000000" stroke-dasharray="5,2" d="M965.2792,-117C1069.34,-117 1302,-117 1302,-117 1302,-117 1302,-143.9909 1302,-143.9909"/>
<polygon fill="#000000" stroke="#000000" points="1298.5001,-143.9909 1302,-153.9909 1305.5001,-143.991 1298.5001,-143.9909"/>
</g>
<!-- FullNamePipe  -->
<g id="node46" class="node">
<title>FullNamePipe </title>
<polygon fill="#fb8072" stroke="#000000" points="1211.3787,-190 1110.6213,-190 1110.6213,-154 1211.3787,-154 1211.3787,-190"/>
<text text-anchor="middle" x="1161" y="-167.8" font-family="Times,serif" font-size="14.00" fill="#000000">FullNamePipe </text>
</g>
<!-- SharedModule&#45;&gt;FullNamePipe  -->
<g id="edge45" class="edge">
<title>SharedModule&#45;&gt;FullNamePipe </title>
<path fill="none" stroke="#000000" stroke-dasharray="5,2" d="M965.2847,-119C1036.8287,-119 1161,-119 1161,-119 1161,-119 1161,-143.7604 1161,-143.7604"/>
<polygon fill="#000000" stroke="#000000" points="1157.5001,-143.7604 1161,-153.7604 1164.5001,-143.7604 1157.5001,-143.7604"/>
</g>
<!-- ShortenPipe  -->
<g id="node47" class="node">
<title>ShortenPipe </title>
<polygon fill="#fb8072" stroke="#000000" points="1092.9362,-190 1005.0638,-190 1005.0638,-154 1092.9362,-154 1092.9362,-190"/>
<text text-anchor="middle" x="1049" y="-167.8" font-family="Times,serif" font-size="14.00" fill="#000000">ShortenPipe </text>
</g>
<!-- SharedModule&#45;&gt;ShortenPipe  -->
<g id="edge46" class="edge">
<title>SharedModule&#45;&gt;ShortenPipe </title>
<path fill="none" stroke="#000000" stroke-dasharray="5,2" d="M965.5243,-121C1003.3381,-121 1049,-121 1049,-121 1049,-121 1049,-143.8757 1049,-143.8757"/>
<polygon fill="#000000" stroke="#000000" points="1045.5001,-143.8757 1049,-153.8757 1052.5001,-143.8757 1045.5001,-143.8757"/>
</g>
<!-- TitleUnderlineDirective  -->
<g id="node48" class="node">
<title>TitleUnderlineDirective </title>
<polygon fill="#fb8072" stroke="#000000" points="2383.9994,-190 2230.0006,-190 2230.0006,-154 2383.9994,-154 2383.9994,-190"/>
<text text-anchor="middle" x="2307" y="-167.8" font-family="Times,serif" font-size="14.00" fill="#000000">TitleUnderlineDirective </text>
</g>
<!-- SharedModule&#45;&gt;TitleUnderlineDirective  -->
<g id="edge47" class="edge">
<title>SharedModule&#45;&gt;TitleUnderlineDirective </title>
<path fill="none" stroke="#000000" stroke-dasharray="5,2" d="M965.5064,-106C1213.2982,-106 2307,-106 2307,-106 2307,-106 2307,-143.9652 2307,-143.9652"/>
<polygon fill="#000000" stroke="#000000" points="2303.5001,-143.9652 2307,-153.9652 2310.5001,-143.9652 2303.5001,-143.9652"/>
</g>
<!-- UserService -->
<g id="node6" class="node">
<title>UserService</title>
<ellipse fill="#fdb462" stroke="#000000" cx="555" cy="-104" rx="58.4415" ry="18"/>
<text text-anchor="middle" x="555" y="-99.8" font-family="Times,serif" font-size="14.00" fill="#000000">UserService</text>
</g>
<!-- UserService&#45;&gt;AppModule -->
<g id="edge5" class="edge">
<title>UserService&#45;&gt;AppModule</title>
<path fill="none" stroke="#000000" d="M555,-122.2228C555,-122.2228 555,-143.7269 555,-143.7269"/>
<polygon fill="#000000" stroke="#000000" points="551.5001,-143.7269 555,-153.7269 558.5001,-143.727 551.5001,-143.7269"/>
</g>
<!-- JobService -->
<g id="node7" class="node">
<title>JobService</title>
<ellipse fill="#fdb462" stroke="#000000" cx="425" cy="-104" rx="53.309" ry="18"/>
<text text-anchor="middle" x="425" y="-99.8" font-family="Times,serif" font-size="14.00" fill="#000000">JobService</text>
</g>
<!-- JobService&#45;&gt;AppModule -->
<g id="edge6" class="edge">
<title>JobService&#45;&gt;AppModule</title>
<path fill="none" stroke="#000000" d="M425,-122.0225C425,-139.3734 425,-163 425,-163 425,-163 503.1516,-163 503.1516,-163"/>
<polygon fill="#000000" stroke="#000000" points="503.1516,-166.5001 513.1516,-163 503.1516,-159.5001 503.1516,-166.5001"/>
</g>
<!-- ApplicantService -->
<g id="node8" class="node">
<title>ApplicantService</title>
<ellipse fill="#fdb462" stroke="#000000" cx="276" cy="-104" rx="78.1462" ry="18"/>
<text text-anchor="middle" x="276" y="-99.8" font-family="Times,serif" font-size="14.00" fill="#000000">ApplicantService</text>
</g>
<!-- ApplicantService&#45;&gt;AppModule -->
<g id="edge7" class="edge">
<title>ApplicantService&#45;&gt;AppModule</title>
<path fill="none" stroke="#000000" d="M276,-122.2228C276,-142.3652 276,-172 276,-172 276,-172 503.2309,-172 503.2309,-172"/>
<polygon fill="#000000" stroke="#000000" points="503.2309,-175.5001 513.2309,-172 503.2308,-168.5001 503.2309,-175.5001"/>
</g>
<!-- CompanyService -->
<g id="node9" class="node">
<title>CompanyService</title>
<ellipse fill="#fdb462" stroke="#000000" cx="102" cy="-104" rx="77.5897" ry="18"/>
<text text-anchor="middle" x="102" y="-99.8" font-family="Times,serif" font-size="14.00" fill="#000000">CompanyService</text>
</g>
<!-- CompanyService&#45;&gt;AppModule -->
<g id="edge8" class="edge">
<title>CompanyService&#45;&gt;AppModule</title>
<path fill="none" stroke="#000000" d="M102,-122.2479C102,-145.0179 102,-181 102,-181 102,-181 503.1948,-181 503.1948,-181"/>
<polygon fill="#000000" stroke="#000000" points="503.1949,-184.5001 513.1948,-181 503.1948,-177.5001 503.1949,-184.5001"/>
</g>
<!-- ApplicantProfileComponent -->
<g id="node10" class="node">
<title>ApplicantProfileComponent</title>
<polygon fill="#ffffb3" stroke="#000000" points="4274.14,-122 4099.86,-122 4099.86,-86 4274.14,-86 4274.14,-122"/>
<text text-anchor="middle" x="4187" y="-99.8" font-family="Times,serif" font-size="14.00" fill="#000000">ApplicantProfileComponent</text>
</g>
<!-- ApplicantProfileComponent&#45;&gt;ApplicantModule -->
<g id="edge9" class="edge">
<title>ApplicantProfileComponent&#45;&gt;ApplicantModule</title>
<path fill="none" stroke="#000000" d="M4187,-122.0225C4187,-139.3734 4187,-163 4187,-163 4187,-163 4010.5156,-163 4010.5156,-163"/>
<polygon fill="#000000" stroke="#000000" points="4010.5157,-159.5001 4000.5156,-163 4010.5156,-166.5001 4010.5157,-159.5001"/>
</g>
<!-- applicantRouting -->
<g id="node12" class="node">
<title>applicantRouting</title>
<polygon fill="#8dd3c7" stroke="#000000" points="4076.4342,-122 4073.4342,-126 4052.4342,-126 4049.4342,-122 3963.5658,-122 3963.5658,-86 4076.4342,-86 4076.4342,-122"/>
<text text-anchor="middle" x="4020" y="-99.8" font-family="Times,serif" font-size="14.00" fill="#000000">applicantRouting</text>
</g>
<!-- applicantRouting&#45;&gt;ApplicantModule -->
<g id="edge11" class="edge">
<title>applicantRouting&#45;&gt;ApplicantModule</title>
<path fill="none" stroke="#000000" d="M3982.081,-122.2228C3982.081,-122.2228 3982.081,-143.7269 3982.081,-143.7269"/>
<polygon fill="#000000" stroke="#000000" points="3978.5811,-143.7269 3982.081,-153.7269 3985.5811,-143.727 3978.5811,-143.7269"/>
</g>
<!-- ApplicantGuard -->
<g id="node13" class="node">
<title>ApplicantGuard</title>
<ellipse fill="#fdb462" stroke="#000000" cx="3867" cy="-104" rx="73.4959" ry="18"/>
<text text-anchor="middle" x="3867" y="-99.8" font-family="Times,serif" font-size="14.00" fill="#000000">ApplicantGuard</text>
</g>
<!-- ApplicantGuard&#45;&gt;ApplicantModule -->
<g id="edge12" class="edge">
<title>ApplicantGuard&#45;&gt;ApplicantModule</title>
<path fill="none" stroke="#000000" d="M3912.9344,-118.0896C3912.9344,-118.0896 3912.9344,-143.7898 3912.9344,-143.7898"/>
<polygon fill="#000000" stroke="#000000" points="3909.4345,-143.7898 3912.9344,-153.7898 3916.4345,-143.7899 3909.4345,-143.7898"/>
</g>
<!-- LoginComponent -->
<g id="node14" class="node">
<title>LoginComponent</title>
<polygon fill="#ffffb3" stroke="#000000" points="5218.2758,-122 5103.7242,-122 5103.7242,-86 5218.2758,-86 5218.2758,-122"/>
<text text-anchor="middle" x="5161" y="-99.8" font-family="Times,serif" font-size="14.00" fill="#000000">LoginComponent</text>
</g>
<!-- LoginComponent&#45;&gt;AuthenticationModule -->
<g id="edge13" class="edge">
<title>LoginComponent&#45;&gt;AuthenticationModule</title>
<path fill="none" stroke="#000000" d="M5161,-122.1686C5161,-143.498 5161,-176 5161,-176 5161,-176 4763.4524,-176 4763.4524,-176"/>
<polygon fill="#000000" stroke="#000000" points="4763.4524,-172.5001 4753.4524,-176 4763.4523,-179.5001 4763.4524,-172.5001"/>
</g>
<!-- RegisterComponent -->
<g id="node15" class="node">
<title>RegisterComponent</title>
<polygon fill="#ffffb3" stroke="#000000" points="5085.9846,-122 4958.0154,-122 4958.0154,-86 5085.9846,-86 5085.9846,-122"/>
<text text-anchor="middle" x="5022" y="-99.8" font-family="Times,serif" font-size="14.00" fill="#000000">RegisterComponent</text>
</g>
<!-- RegisterComponent&#45;&gt;AuthenticationModule -->
<g id="edge14" class="edge">
<title>RegisterComponent&#45;&gt;AuthenticationModule</title>
<path fill="none" stroke="#000000" d="M5022,-122.1061C5022,-141.3391 5022,-169 5022,-169 5022,-169 4763.2751,-169 4763.2751,-169"/>
<polygon fill="#000000" stroke="#000000" points="4763.2752,-165.5001 4753.2751,-169 4763.2751,-172.5001 4763.2752,-165.5001"/>
</g>
<!-- RegisterStep1Component -->
<g id="node16" class="node">
<title>RegisterStep1Component</title>
<polygon fill="#ffffb3" stroke="#000000" points="4939.8725,-122 4780.1275,-122 4780.1275,-86 4939.8725,-86 4939.8725,-122"/>
<text text-anchor="middle" x="4860" y="-99.8" font-family="Times,serif" font-size="14.00" fill="#000000">RegisterStep1Component</text>
</g>
<!-- RegisterStep1Component&#45;&gt;AuthenticationModule -->
<g id="edge15" class="edge">
<title>RegisterStep1Component&#45;&gt;AuthenticationModule</title>
<path fill="none" stroke="#000000" d="M4860,-122.0336C4860,-139.0597 4860,-162 4860,-162 4860,-162 4763.3738,-162 4763.3738,-162"/>
<polygon fill="#000000" stroke="#000000" points="4763.3738,-158.5001 4753.3738,-162 4763.3737,-165.5001 4763.3738,-158.5001"/>
</g>
<!-- RegisterStep2Component -->
<g id="node17" class="node">
<title>RegisterStep2Component</title>
<polygon fill="#ffffb3" stroke="#000000" points="4761.8725,-122 4602.1275,-122 4602.1275,-86 4761.8725,-86 4761.8725,-122"/>
<text text-anchor="middle" x="4682" y="-99.8" font-family="Times,serif" font-size="14.00" fill="#000000">RegisterStep2Component</text>
</g>
<!-- RegisterStep2Component&#45;&gt;AuthenticationModule -->
<g id="edge16" class="edge">
<title>RegisterStep2Component&#45;&gt;AuthenticationModule</title>
<path fill="none" stroke="#000000" d="M4705.7922,-122.2228C4705.7922,-122.2228 4705.7922,-143.7269 4705.7922,-143.7269"/>
<polygon fill="#000000" stroke="#000000" points="4702.2923,-143.7269 4705.7922,-153.7269 4709.2923,-143.727 4702.2923,-143.7269"/>
</g>
<!-- authRouting -->
<g id="node19" class="node">
<title>authRouting</title>
<polygon fill="#8dd3c7" stroke="#000000" points="4577.7233,-122 4574.7233,-126 4553.7233,-126 4550.7233,-122 4492.2767,-122 4492.2767,-86 4577.7233,-86 4577.7233,-122"/>
<text text-anchor="middle" x="4535" y="-99.8" font-family="Times,serif" font-size="14.00" fill="#000000">authRouting</text>
</g>
<!-- authRouting&#45;&gt;AuthenticationModule -->
<g id="edge17" class="edge">
<title>authRouting&#45;&gt;AuthenticationModule</title>
<path fill="none" stroke="#000000" d="M4535,-122.2228C4535,-142.3652 4535,-172 4535,-172 4535,-172 4600.653,-172 4600.653,-172"/>
<polygon fill="#000000" stroke="#000000" points="4600.6531,-175.5001 4610.653,-172 4600.653,-168.5001 4600.6531,-175.5001"/>
</g>
<!-- IsSignedInGuard -->
<g id="node20" class="node">
<title>IsSignedInGuard</title>
<ellipse fill="#fdb462" stroke="#000000" cx="4391" cy="-104" rx="77.0081" ry="18"/>
<text text-anchor="middle" x="4391" y="-99.8" font-family="Times,serif" font-size="14.00" fill="#000000">IsSignedInGuard</text>
</g>
<!-- IsSignedInGuard&#45;&gt;AuthenticationModule -->
<g id="edge19" class="edge">
<title>IsSignedInGuard&#45;&gt;AuthenticationModule</title>
<path fill="none" stroke="#000000" d="M4391,-122.2479C4391,-145.0179 4391,-181 4391,-181 4391,-181 4600.4407,-181 4600.4407,-181"/>
<polygon fill="#000000" stroke="#000000" points="4600.4407,-184.5001 4610.4407,-181 4600.4407,-177.5001 4600.4407,-184.5001"/>
</g>
<!-- CompanyProfileComponent -->
<g id="node21" class="node">
<title>CompanyProfileComponent</title>
<polygon fill="#ffffb3" stroke="#000000" points="5917.8738,-122 5744.1262,-122 5744.1262,-86 5917.8738,-86 5917.8738,-122"/>
<text text-anchor="middle" x="5831" y="-99.8" font-family="Times,serif" font-size="14.00" fill="#000000">CompanyProfileComponent</text>
</g>
<!-- CompanyProfileComponent&#45;&gt;CompanyModule -->
<g id="edge20" class="edge">
<title>CompanyProfileComponent&#45;&gt;CompanyModule</title>
<path fill="none" stroke="#000000" d="M5831,-122.2228C5831,-142.3652 5831,-172 5831,-172 5831,-172 5551.3,-172 5551.3,-172"/>
<polygon fill="#000000" stroke="#000000" points="5551.3,-168.5001 5541.3,-172 5551.3,-175.5001 5551.3,-168.5001"/>
</g>
<!-- JobApplicantsComponent -->
<g id="node22" class="node">
<title>JobApplicantsComponent</title>
<polygon fill="#ffffb3" stroke="#000000" points="5725.9298,-122 5564.0702,-122 5564.0702,-86 5725.9298,-86 5725.9298,-122"/>
<text text-anchor="middle" x="5645" y="-99.8" font-family="Times,serif" font-size="14.00" fill="#000000">JobApplicantsComponent</text>
</g>
<!-- JobApplicantsComponent&#45;&gt;CompanyModule -->
<g id="edge21" class="edge">
<title>JobApplicantsComponent&#45;&gt;CompanyModule</title>
<path fill="none" stroke="#000000" d="M5645,-122.0225C5645,-139.3734 5645,-163 5645,-163 5645,-163 5551.2159,-163 5551.2159,-163"/>
<polygon fill="#000000" stroke="#000000" points="5551.2159,-159.5001 5541.2159,-163 5551.2159,-166.5001 5551.2159,-159.5001"/>
</g>
<!-- companyRouting -->
<g id="node24" class="node">
<title>companyRouting</title>
<polygon fill="#8dd3c7" stroke="#000000" points="5540.4385,-122 5537.4385,-126 5516.4385,-126 5513.4385,-122 5427.5615,-122 5427.5615,-86 5540.4385,-86 5540.4385,-122"/>
<text text-anchor="middle" x="5484" y="-99.8" font-family="Times,serif" font-size="14.00" fill="#000000">companyRouting</text>
</g>
<!-- companyRouting&#45;&gt;CompanyModule -->
<g id="edge23" class="edge">
<title>companyRouting&#45;&gt;CompanyModule</title>
<path fill="none" stroke="#000000" d="M5502.7396,-122.2228C5502.7396,-122.2228 5502.7396,-143.7269 5502.7396,-143.7269"/>
<polygon fill="#000000" stroke="#000000" points="5499.2397,-143.7269 5502.7396,-153.7269 5506.2397,-143.727 5499.2397,-143.7269"/>
</g>
<!-- CompanyGuard -->
<g id="node25" class="node">
<title>CompanyGuard</title>
<ellipse fill="#fdb462" stroke="#000000" cx="5331" cy="-104" rx="72.9392" ry="18"/>
<text text-anchor="middle" x="5331" y="-99.8" font-family="Times,serif" font-size="14.00" fill="#000000">CompanyGuard</text>
</g>
<!-- CompanyGuard&#45;&gt;CompanyModule -->
<g id="edge24" class="edge">
<title>CompanyGuard&#45;&gt;CompanyModule</title>
<path fill="none" stroke="#000000" d="M5331,-122.3228C5331,-145.6602 5331,-183 5331,-183 5331,-183 5416.5931,-183 5416.5931,-183"/>
<polygon fill="#000000" stroke="#000000" points="5416.5932,-186.5001 5426.5931,-183 5416.5931,-179.5001 5416.5932,-186.5001"/>
</g>
<!-- HomeComponent -->
<g id="node26" class="node">
<title>HomeComponent</title>
<polygon fill="#ffffb3" stroke="#000000" points="6492.5451,-122 6377.4549,-122 6377.4549,-86 6492.5451,-86 6492.5451,-122"/>
<text text-anchor="middle" x="6435" y="-99.8" font-family="Times,serif" font-size="14.00" fill="#000000">HomeComponent</text>
</g>
<!-- HomeComponent&#45;&gt;FrontModule -->
<g id="edge25" class="edge">
<title>HomeComponent&#45;&gt;FrontModule</title>
<path fill="none" stroke="#000000" d="M6435,-122.2921C6435,-144.2057 6435,-178 6435,-178 6435,-178 6191.9363,-178 6191.9363,-178"/>
<polygon fill="#000000" stroke="#000000" points="6191.9363,-174.5001 6181.9363,-178 6191.9362,-181.5001 6191.9363,-174.5001"/>
</g>
<!-- FindAJobComponent -->
<g id="node27" class="node">
<title>FindAJobComponent</title>
<polygon fill="#ffffb3" stroke="#000000" points="6359.0575,-122 6222.9425,-122 6222.9425,-86 6359.0575,-86 6359.0575,-122"/>
<text text-anchor="middle" x="6291" y="-99.8" font-family="Times,serif" font-size="14.00" fill="#000000">FindAJobComponent</text>
</g>
<!-- FindAJobComponent&#45;&gt;FrontModule -->
<g id="edge26" class="edge">
<title>FindAJobComponent&#45;&gt;FrontModule</title>
<path fill="none" stroke="#000000" d="M6291,-122.2667C6291,-140.5552 6291,-166 6291,-166 6291,-166 6191.9572,-166 6191.9572,-166"/>
<polygon fill="#000000" stroke="#000000" points="6191.9572,-162.5001 6181.9572,-166 6191.9571,-169.5001 6191.9572,-162.5001"/>
</g>
<!-- JobDetailComponent -->
<g id="node28" class="node">
<title>JobDetailComponent</title>
<polygon fill="#ffffb3" stroke="#000000" points="6204.4846,-122 6069.5154,-122 6069.5154,-86 6204.4846,-86 6204.4846,-122"/>
<text text-anchor="middle" x="6137" y="-99.8" font-family="Times,serif" font-size="14.00" fill="#000000">JobDetailComponent</text>
</g>
<!-- JobDetailComponent&#45;&gt;FrontModule -->
<g id="edge27" class="edge">
<title>JobDetailComponent&#45;&gt;FrontModule</title>
<path fill="none" stroke="#000000" d="M6151.9806,-122.2228C6151.9806,-122.2228 6151.9806,-143.7269 6151.9806,-143.7269"/>
<polygon fill="#000000" stroke="#000000" points="6148.4807,-143.7269 6151.9806,-153.7269 6155.4807,-143.727 6148.4807,-143.7269"/>
</g>
<!-- frontRouting -->
<g id="node30" class="node">
<title>frontRouting</title>
<polygon fill="#8dd3c7" stroke="#000000" points="6046.3302,-122 6043.3302,-126 6022.3302,-126 6019.3302,-122 5957.6698,-122 5957.6698,-86 6046.3302,-86 6046.3302,-122"/>
<text text-anchor="middle" x="6002" y="-99.8" font-family="Times,serif" font-size="14.00" fill="#000000">frontRouting</text>
</g>
<!-- frontRouting&#45;&gt;FrontModule -->
<g id="edge28" class="edge">
<title>frontRouting&#45;&gt;FrontModule</title>
<path fill="none" stroke="#000000" d="M6002,-122.2479C6002,-145.0179 6002,-181 6002,-181 6002,-181 6082.047,-181 6082.047,-181"/>
<polygon fill="#000000" stroke="#000000" points="6082.047,-184.5001 6092.047,-181 6082.0469,-177.5001 6082.047,-184.5001"/>
</g>
<!-- DashboardComponent -->
<g id="node31" class="node">
<title>DashboardComponent</title>
<polygon fill="#ffffb3" stroke="#000000" points="3585.9734,-190 3444.0266,-190 3444.0266,-154 3585.9734,-154 3585.9734,-190"/>
<text text-anchor="middle" x="3515" y="-167.8" font-family="Times,serif" font-size="14.00" fill="#000000">DashboardComponent</text>
</g>
<!-- DashboardComponent&#45;&gt;SharedModule -->
<g id="edge30" class="edge">
<title>DashboardComponent&#45;&gt;SharedModule</title>
<path fill="none" stroke="#000000" d="M3515,-153.8468C3515,-130.2434 3515,-92 3515,-92 3515,-92 975.3114,-92 975.3114,-92"/>
<polygon fill="#000000" stroke="#000000" points="975.3114,-88.5001 965.3114,-92 975.3114,-95.5001 975.3114,-88.5001"/>
</g>
<!-- HeaderComponent -->
<g id="node32" class="node">
<title>HeaderComponent</title>
<polygon fill="#ffffb3" stroke="#000000" points="3425.7437,-190 3304.2563,-190 3304.2563,-154 3425.7437,-154 3425.7437,-190"/>
<text text-anchor="middle" x="3365" y="-167.8" font-family="Times,serif" font-size="14.00" fill="#000000">HeaderComponent</text>
</g>
<!-- HeaderComponent&#45;&gt;SharedModule -->
<g id="edge31" class="edge">
<title>HeaderComponent&#45;&gt;SharedModule</title>
<path fill="none" stroke="#000000" d="M3365,-153.9092C3365,-130.8672 3365,-94 3365,-94 3365,-94 975.4731,-94 975.4731,-94"/>
<polygon fill="#000000" stroke="#000000" points="975.4732,-90.5001 965.4731,-94 975.4731,-97.5001 975.4732,-90.5001"/>
</g>
<!-- ProfileInfoComponent -->
<g id="node33" class="node">
<title>ProfileInfoComponent</title>
<polygon fill="#ffffb3" stroke="#000000" points="3286.2534,-190 3143.7466,-190 3143.7466,-154 3286.2534,-154 3286.2534,-190"/>
<text text-anchor="middle" x="3215" y="-167.8" font-family="Times,serif" font-size="14.00" fill="#000000">ProfileInfoComponent</text>
</g>
<!-- ProfileInfoComponent&#45;&gt;SharedModule -->
<g id="edge32" class="edge">
<title>ProfileInfoComponent&#45;&gt;SharedModule</title>
<path fill="none" stroke="#000000" d="M3215,-153.7521C3215,-130.9821 3215,-95 3215,-95 3215,-95 975.3491,-95 975.3491,-95"/>
<polygon fill="#000000" stroke="#000000" points="975.3491,-91.5001 965.3491,-95 975.349,-98.5001 975.3491,-91.5001"/>
</g>
<!-- ProfileDataComponent -->
<g id="node34" class="node">
<title>ProfileDataComponent</title>
<polygon fill="#ffffb3" stroke="#000000" points="3125.8585,-190 2980.1415,-190 2980.1415,-154 3125.8585,-154 3125.8585,-190"/>
<text text-anchor="middle" x="3053" y="-167.8" font-family="Times,serif" font-size="14.00" fill="#000000">ProfileDataComponent</text>
</g>
<!-- ProfileDataComponent&#45;&gt;SharedModule -->
<g id="edge33" class="edge">
<title>ProfileDataComponent&#45;&gt;SharedModule</title>
<path fill="none" stroke="#000000" d="M3053,-153.8446C3053,-131.6481 3053,-97 3053,-97 3053,-97 975.4201,-97 975.4201,-97"/>
<polygon fill="#000000" stroke="#000000" points="975.4202,-93.5001 965.4201,-97 975.4201,-100.5001 975.4202,-93.5001"/>
</g>
<!-- JobManipulationComponent -->
<g id="node35" class="node">
<title>JobManipulationComponent</title>
<polygon fill="#ffffb3" stroke="#000000" points="2962.2133,-190 2785.7867,-190 2785.7867,-154 2962.2133,-154 2962.2133,-190"/>
<text text-anchor="middle" x="2874" y="-167.8" font-family="Times,serif" font-size="14.00" fill="#000000">JobManipulationComponent</text>
</g>
<!-- JobManipulationComponent&#45;&gt;SharedModule -->
<g id="edge34" class="edge">
<title>JobManipulationComponent&#45;&gt;SharedModule</title>
<path fill="none" stroke="#000000" d="M2874,-153.9551C2874,-132.3377 2874,-99 2874,-99 2874,-99 975.3795,-99 975.3795,-99"/>
<polygon fill="#000000" stroke="#000000" points="975.3796,-95.5001 965.3795,-99 975.3795,-102.5001 975.3796,-95.5001"/>
</g>
<!-- EditProfileComponent -->
<g id="node36" class="node">
<title>EditProfileComponent</title>
<polygon fill="#ffffb3" stroke="#000000" points="2768.266,-190 2625.734,-190 2625.734,-154 2768.266,-154 2768.266,-190"/>
<text text-anchor="middle" x="2697" y="-167.8" font-family="Times,serif" font-size="14.00" fill="#000000">EditProfileComponent</text>
</g>
<!-- EditProfileComponent&#45;&gt;SharedModule -->
<g id="edge35" class="edge">
<title>EditProfileComponent&#45;&gt;SharedModule</title>
<path fill="none" stroke="#000000" d="M2697,-153.7157C2697,-132.6789 2697,-101 2697,-101 2697,-101 975.493,-101 975.493,-101"/>
<polygon fill="#000000" stroke="#000000" points="975.493,-97.5001 965.493,-101 975.4929,-104.5001 975.493,-97.5001"/>
</g>
<!-- FullNamePipe -->
<g id="node37" class="node">
<title>FullNamePipe</title>
<polygon fill="#ffffb3" stroke="#000000" points="2607.3781,-190 2510.6219,-190 2510.6219,-154 2607.3781,-154 2607.3781,-190"/>
<text text-anchor="middle" x="2559" y="-167.8" font-family="Times,serif" font-size="14.00" fill="#000000">FullNamePipe</text>
</g>
<!-- FullNamePipe&#45;&gt;SharedModule -->
<g id="edge36" class="edge">
<title>FullNamePipe&#45;&gt;SharedModule</title>
<path fill="none" stroke="#000000" d="M2559,-153.8711C2559,-133.4276 2559,-103 2559,-103 2559,-103 975.6193,-103 975.6193,-103"/>
<polygon fill="#000000" stroke="#000000" points="975.6194,-99.5001 965.6193,-103 975.6193,-106.5001 975.6194,-99.5001"/>
</g>
<!-- ShortenPipe -->
<g id="node38" class="node">
<title>ShortenPipe</title>
<polygon fill="#ffffb3" stroke="#000000" points="2492.4373,-190 2407.5627,-190 2407.5627,-154 2492.4373,-154 2492.4373,-190"/>
<text text-anchor="middle" x="2450" y="-167.8" font-family="Times,serif" font-size="14.00" fill="#000000">ShortenPipe</text>
</g>
<!-- ShortenPipe&#45;&gt;SharedModule -->
<g id="edge37" class="edge">
<title>ShortenPipe&#45;&gt;SharedModule</title>
<path fill="none" stroke="#000000" d="M2450,-153.7772C2450,-133.6348 2450,-104 2450,-104 2450,-104 975.3015,-104 975.3015,-104"/>
<polygon fill="#000000" stroke="#000000" points="975.3016,-100.5001 965.3015,-104 975.3015,-107.5001 975.3016,-100.5001"/>
</g>
<!-- TitleUnderlineDirective -->
<g id="node39" class="node">
<title>TitleUnderlineDirective</title>
<polygon fill="#ffffb3" stroke="#000000" points="3754.5002,-190 3603.4998,-190 3603.4998,-154 3754.5002,-154 3754.5002,-190"/>
<text text-anchor="middle" x="3679" y="-167.8" font-family="Times,serif" font-size="14.00" fill="#000000">TitleUnderlineDirective</text>
</g>
<!-- TitleUnderlineDirective&#45;&gt;SharedModule -->
<g id="edge38" class="edge">
<title>TitleUnderlineDirective&#45;&gt;SharedModule</title>
<path fill="none" stroke="#000000" d="M3679,-153.8015C3679,-129.6437 3679,-90 3679,-90 3679,-90 975.4249,-90 975.4249,-90"/>
<polygon fill="#000000" stroke="#000000" points="975.425,-86.5001 965.4249,-90 975.4249,-93.5001 975.425,-86.5001"/>
</g>
</g>
</svg>
