<?xml version="1.0" encoding="UTF-8" standalone="no"?>
<!DOCTYPE svg PUBLIC "-//W3C//DTD SVG 1.1//EN"
 "http://www.w3.org/Graphics/SVG/1.1/DTD/svg11.dtd">
<!-- Generated by graphviz version 2.40.1 (20161225.0304)
 -->
<!-- Title: dependencies Pages: 1 -->
<svg width="832pt" height="211pt"
 viewBox="0.00 0.00 832.00 211.00" xmlns="http://www.w3.org/2000/svg" xmlns:xlink="http://www.w3.org/1999/xlink">
<g id="graph0" class="graph" transform="scale(1 1) rotate(0) translate(4 207)">
<title>dependencies</title>
<polygon fill="#ffffff" stroke="transparent" points="-4,4 -4,-207 828,-207 828,4 -4,4"/>
<text text-anchor="start" x="391.0091" y="-42.4" font-family="sans-serif" font-weight="bold" font-size="14.00" fill="#000000">Legend</text>
<polygon fill="#ffffb3" stroke="transparent" points="178,-10 178,-30 198,-30 198,-10 178,-10"/>
<text text-anchor="start" x="201.629" y="-15.4" font-family="sans-serif" font-size="14.00" fill="#000000"> &#160;Declarations</text>
<polygon fill="#8dd3c7" stroke="transparent" points="291,-10 291,-30 311,-30 311,-10 291,-10"/>
<text text-anchor="start" x="314.7251" y="-15.4" font-family="sans-serif" font-size="14.00" fill="#000000"> &#160;Module</text>
<polygon fill="#80b1d3" stroke="transparent" points="377,-10 377,-30 397,-30 397,-10 377,-10"/>
<text text-anchor="start" x="400.7812" y="-15.4" font-family="sans-serif" font-size="14.00" fill="#000000"> &#160;Bootstrap</text>
<polygon fill="#fdb462" stroke="transparent" points="474,-10 474,-30 494,-30 494,-10 474,-10"/>
<text text-anchor="start" x="497.6732" y="-15.4" font-family="sans-serif" font-size="14.00" fill="#000000"> &#160;Providers</text>
<polygon fill="#fb8072" stroke="transparent" points="570,-10 570,-30 590,-30 590,-10 570,-10"/>
<text text-anchor="start" x="593.7258" y="-15.4" font-family="sans-serif" font-size="14.00" fill="#000000"> &#160;Exports</text>
<g id="clust1" class="cluster">
<title>cluster_CompanyModule</title>
<polygon fill="none" stroke="#000000" stroke-dasharray="1,5" points="8,-70 8,-195 816,-195 816,-70 8,-70"/>
</g>
<g id="clust2" class="cluster">
<title>cluster_CompanyModule_declarations</title>
<polygon fill="none" stroke="#000000" points="438,-78 438,-130 808,-130 808,-78 438,-78"/>
</g>
<g id="clust5" class="cluster">
<title>cluster_CompanyModule_imports</title>
<polygon fill="none" stroke="#000000" points="186,-78 186,-130 430,-130 430,-78 186,-78"/>
</g>
<g id="clust8" class="cluster">
<title>cluster_CompanyModule_providers</title>
<polygon fill="none" stroke="#000000" points="16,-78 16,-130 178,-130 178,-78 16,-78"/>
</g>
<!-- CompanyProfileComponent -->
<g id="node1" class="node">
<title>CompanyProfileComponent</title>
<polygon fill="#ffffb3" stroke="#000000" points="799.8738,-122 626.1262,-122 626.1262,-86 799.8738,-86 799.8738,-122"/>
<text text-anchor="middle" x="713" y="-99.8" font-family="Times,serif" font-size="14.00" fill="#000000">CompanyProfileComponent</text>
</g>
<!-- CompanyModule -->
<g id="node3" class="node">
<title>CompanyModule</title>
<polygon fill="#8dd3c7" stroke="#000000" points="429.9916,-187 426.9916,-191 405.9916,-191 402.9916,-187 316.0084,-187 316.0084,-151 429.9916,-151 429.9916,-187"/>
<text text-anchor="middle" x="373" y="-164.8" font-family="Times,serif" font-size="14.00" fill="#000000">CompanyModule</text>
</g>
<!-- CompanyProfileComponent&#45;&gt;CompanyModule -->
<g id="edge1" class="edge">
<title>CompanyProfileComponent&#45;&gt;CompanyModule</title>
<path fill="none" stroke="#000000" d="M713,-122.1061C713,-141.3391 713,-169 713,-169 713,-169 440.2919,-169 440.2919,-169"/>
<polygon fill="#000000" stroke="#000000" points="440.2919,-165.5001 430.2919,-169 440.2919,-172.5001 440.2919,-165.5001"/>
</g>
<!-- JobApplicantsComponent -->
<g id="node2" class="node">
<title>JobApplicantsComponent</title>
<polygon fill="#ffffb3" stroke="#000000" points="607.9298,-122 446.0702,-122 446.0702,-86 607.9298,-86 607.9298,-122"/>
<text text-anchor="middle" x="527" y="-99.8" font-family="Times,serif" font-size="14.00" fill="#000000">JobApplicantsComponent</text>
</g>
<!-- JobApplicantsComponent&#45;&gt;CompanyModule -->
<g id="edge2" class="edge">
<title>JobApplicantsComponent&#45;&gt;CompanyModule</title>
<path fill="none" stroke="#000000" d="M446.0374,-104C434.3078,-104 426.1034,-104 426.1034,-104 426.1034,-104 426.1034,-140.8939 426.1034,-140.8939"/>
<polygon fill="#000000" stroke="#000000" points="422.6035,-140.8938 426.1034,-150.8939 429.6035,-140.8939 422.6035,-140.8938"/>
</g>
<!-- SharedModule -->
<g id="node4" class="node">
<title>SharedModule</title>
<polygon fill="#8dd3c7" stroke="#000000" points="422.4231,-122 419.4231,-126 398.4231,-126 395.4231,-122 323.5769,-122 323.5769,-86 422.4231,-86 422.4231,-122"/>
<text text-anchor="middle" x="373" y="-99.8" font-family="Times,serif" font-size="14.00" fill="#000000">SharedModule</text>
</g>
<!-- SharedModule&#45;&gt;CompanyModule -->
<g id="edge3" class="edge">
<title>SharedModule&#45;&gt;CompanyModule</title>
<path fill="none" stroke="#000000" d="M373,-122.1061C373,-122.1061 373,-140.991 373,-140.991"/>
<polygon fill="#000000" stroke="#000000" points="369.5001,-140.9909 373,-150.991 376.5001,-140.991 369.5001,-140.9909"/>
</g>
<!-- companyRouting -->
<g id="node5" class="node">
<title>companyRouting</title>
<polygon fill="#8dd3c7" stroke="#000000" points="306.4385,-122 303.4385,-126 282.4385,-126 279.4385,-122 193.5615,-122 193.5615,-86 306.4385,-86 306.4385,-122"/>
<text text-anchor="middle" x="250" y="-99.8" font-family="Times,serif" font-size="14.00" fill="#000000">companyRouting</text>
</g>
<!-- companyRouting&#45;&gt;CompanyModule -->
<g id="edge4" class="edge">
<title>companyRouting&#45;&gt;CompanyModule</title>
<path fill="none" stroke="#000000" d="M306.4198,-104C314.3676,-104 319.8966,-104 319.8966,-104 319.8966,-104 319.8966,-140.8939 319.8966,-140.8939"/>
<polygon fill="#000000" stroke="#000000" points="316.3966,-140.8938 319.8966,-150.8939 323.3966,-140.8939 316.3966,-140.8938"/>
</g>
<!-- CompanyGuard -->
<g id="node6" class="node">
<title>CompanyGuard</title>
<ellipse fill="#fdb462" stroke="#000000" cx="97" cy="-104" rx="72.9392" ry="18"/>
<text text-anchor="middle" x="97" y="-99.8" font-family="Times,serif" font-size="14.00" fill="#000000">CompanyGuard</text>
</g>
<!-- CompanyGuard&#45;&gt;CompanyModule -->
<g id="edge5" class="edge">
<title>CompanyGuard&#45;&gt;CompanyModule</title>
<path fill="none" stroke="#000000" d="M97,-122.1061C97,-141.3391 97,-169 97,-169 97,-169 305.8126,-169 305.8126,-169"/>
<polygon fill="#000000" stroke="#000000" points="305.8127,-172.5001 315.8126,-169 305.8126,-165.5001 305.8127,-172.5001"/>
</g>
</g>
</svg>
