<?xml version="1.0" encoding="UTF-8" standalone="no"?>
<!DOCTYPE svg PUBLIC "-//W3C//DTD SVG 1.1//EN"
 "http://www.w3.org/Graphics/SVG/1.1/DTD/svg11.dtd">
<!-- Generated by graphviz version 2.40.1 (20161225.0304)
 -->
<!-- Title: dependencies Pages: 1 -->
<svg width="707pt" height="211pt"
 viewBox="0.00 0.00 707.00 211.00" xmlns="http://www.w3.org/2000/svg" xmlns:xlink="http://www.w3.org/1999/xlink">
<g id="graph0" class="graph" transform="scale(1 1) rotate(0) translate(4 207)">
<title>dependencies</title>
<polygon fill="#ffffff" stroke="transparent" points="-4,4 -4,-207 703,-207 703,4 -4,4"/>
<text text-anchor="start" x="328.5091" y="-42.4" font-family="sans-serif" font-weight="bold" font-size="14.00" fill="#000000">Legend</text>
<polygon fill="#ffffb3" stroke="transparent" points="115.5,-10 115.5,-30 135.5,-30 135.5,-10 115.5,-10"/>
<text text-anchor="start" x="139.129" y="-15.4" font-family="sans-serif" font-size="14.00" fill="#000000"> &#160;Declarations</text>
<polygon fill="#8dd3c7" stroke="transparent" points="228.5,-10 228.5,-30 248.5,-30 248.5,-10 228.5,-10"/>
<text text-anchor="start" x="252.2251" y="-15.4" font-family="sans-serif" font-size="14.00" fill="#000000"> &#160;Module</text>
<polygon fill="#80b1d3" stroke="transparent" points="314.5,-10 314.5,-30 334.5,-30 334.5,-10 314.5,-10"/>
<text text-anchor="start" x="338.2812" y="-15.4" font-family="sans-serif" font-size="14.00" fill="#000000"> &#160;Bootstrap</text>
<polygon fill="#fdb462" stroke="transparent" points="411.5,-10 411.5,-30 431.5,-30 431.5,-10 411.5,-10"/>
<text text-anchor="start" x="435.1732" y="-15.4" font-family="sans-serif" font-size="14.00" fill="#000000"> &#160;Providers</text>
<polygon fill="#fb8072" stroke="transparent" points="507.5,-10 507.5,-30 527.5,-30 527.5,-10 507.5,-10"/>
<text text-anchor="start" x="531.2258" y="-15.4" font-family="sans-serif" font-size="14.00" fill="#000000"> &#160;Exports</text>
<g id="clust1" class="cluster">
<title>cluster_FrontModule</title>
<polygon fill="none" stroke="#000000" stroke-dasharray="1,5" points="8,-70 8,-195 691,-195 691,-70 8,-70"/>
</g>
<g id="clust2" class="cluster">
<title>cluster_FrontModule_declarations</title>
<polygon fill="none" stroke="#000000" points="244,-78 244,-130 683,-130 683,-78 244,-78"/>
</g>
<g id="clust6" class="cluster">
<title>cluster_FrontModule_imports</title>
<polygon fill="none" stroke="#000000" points="16,-78 16,-130 236,-130 236,-78 16,-78"/>
</g>
<!-- HomeComponent -->
<g id="node1" class="node">
<title>HomeComponent</title>
<polygon fill="#ffffb3" stroke="#000000" points="674.5451,-122 559.4549,-122 559.4549,-86 674.5451,-86 674.5451,-122"/>
<text text-anchor="middle" x="617" y="-99.8" font-family="Times,serif" font-size="14.00" fill="#000000">HomeComponent</text>
</g>
<!-- FrontModule -->
<g id="node4" class="node">
<title>FrontModule</title>
<polygon fill="#8dd3c7" stroke="#000000" points="363.8837,-187 360.8837,-191 339.8837,-191 336.8837,-187 274.1163,-187 274.1163,-151 363.8837,-151 363.8837,-187"/>
<text text-anchor="middle" x="319" y="-164.8" font-family="Times,serif" font-size="14.00" fill="#000000">FrontModule</text>
</g>
<!-- HomeComponent&#45;&gt;FrontModule -->
<g id="edge1" class="edge">
<title>HomeComponent&#45;&gt;FrontModule</title>
<path fill="none" stroke="#000000" d="M617,-122.2843C617,-143.3211 617,-175 617,-175 617,-175 373.9363,-175 373.9363,-175"/>
<polygon fill="#000000" stroke="#000000" points="373.9363,-171.5001 363.9363,-175 373.9362,-178.5001 373.9363,-171.5001"/>
</g>
<!-- FindAJobComponent -->
<g id="node2" class="node">
<title>FindAJobComponent</title>
<polygon fill="#ffffb3" stroke="#000000" points="541.0575,-122 404.9425,-122 404.9425,-86 541.0575,-86 541.0575,-122"/>
<text text-anchor="middle" x="473" y="-99.8" font-family="Times,serif" font-size="14.00" fill="#000000">FindAJobComponent</text>
</g>
<!-- FindAJobComponent&#45;&gt;FrontModule -->
<g id="edge2" class="edge">
<title>FindAJobComponent&#45;&gt;FrontModule</title>
<path fill="none" stroke="#000000" d="M473,-122.0225C473,-139.3734 473,-163 473,-163 473,-163 373.9572,-163 373.9572,-163"/>
<polygon fill="#000000" stroke="#000000" points="373.9572,-159.5001 363.9572,-163 373.9571,-166.5001 373.9572,-159.5001"/>
</g>
<!-- JobDetailComponent -->
<g id="node3" class="node">
<title>JobDetailComponent</title>
<polygon fill="#ffffb3" stroke="#000000" points="386.4846,-122 251.5154,-122 251.5154,-86 386.4846,-86 386.4846,-122"/>
<text text-anchor="middle" x="319" y="-99.8" font-family="Times,serif" font-size="14.00" fill="#000000">JobDetailComponent</text>
</g>
<!-- JobDetailComponent&#45;&gt;FrontModule -->
<g id="edge3" class="edge">
<title>JobDetailComponent&#45;&gt;FrontModule</title>
<path fill="none" stroke="#000000" d="M319,-122.1061C319,-122.1061 319,-140.991 319,-140.991"/>
<polygon fill="#000000" stroke="#000000" points="315.5001,-140.9909 319,-150.991 322.5001,-140.991 315.5001,-140.9909"/>
</g>
<!-- frontRouting -->
<g id="node5" class="node">
<title>frontRouting</title>
<polygon fill="#8dd3c7" stroke="#000000" points="228.3302,-122 225.3302,-126 204.3302,-126 201.3302,-122 139.6698,-122 139.6698,-86 228.3302,-86 228.3302,-122"/>
<text text-anchor="middle" x="184" y="-99.8" font-family="Times,serif" font-size="14.00" fill="#000000">frontRouting</text>
</g>
<!-- frontRouting&#45;&gt;FrontModule -->
<g id="edge4" class="edge">
<title>frontRouting&#45;&gt;FrontModule</title>
<path fill="none" stroke="#000000" d="M184,-122.0225C184,-139.3734 184,-163 184,-163 184,-163 264.047,-163 264.047,-163"/>
<polygon fill="#000000" stroke="#000000" points="264.047,-166.5001 274.047,-163 264.0469,-159.5001 264.047,-166.5001"/>
</g>
<!-- SharedModule -->
<g id="node6" class="node">
<title>SharedModule</title>
<polygon fill="#8dd3c7" stroke="#000000" points="122.4231,-122 119.4231,-126 98.4231,-126 95.4231,-122 23.5769,-122 23.5769,-86 122.4231,-86 122.4231,-122"/>
<text text-anchor="middle" x="73" y="-99.8" font-family="Times,serif" font-size="14.00" fill="#000000">SharedModule</text>
</g>
<!-- SharedModule&#45;&gt;FrontModule -->
<g id="edge5" class="edge">
<title>SharedModule&#45;&gt;FrontModule</title>
<path fill="none" stroke="#000000" d="M73,-122.2843C73,-143.3211 73,-175 73,-175 73,-175 263.8798,-175 263.8798,-175"/>
<polygon fill="#000000" stroke="#000000" points="263.8798,-178.5001 273.8798,-175 263.8798,-171.5001 263.8798,-178.5001"/>
</g>
</g>
</svg>
