<?xml version="1.0" encoding="UTF-8" standalone="no"?>
<!DOCTYPE svg PUBLIC "-//W3C//DTD SVG 1.1//EN"
 "http://www.w3.org/Graphics/SVG/1.1/DTD/svg11.dtd">
<!-- Generated by graphviz version 2.40.1 (20161225.0304)
 -->
<!-- Title: dependencies Pages: 1 -->
<svg width="997pt" height="284pt"
 viewBox="0.00 0.00 997.00 284.00" xmlns="http://www.w3.org/2000/svg" xmlns:xlink="http://www.w3.org/1999/xlink">
<g id="graph0" class="graph" transform="scale(1 1) rotate(0) translate(4 280)">
<title>dependencies</title>
<polygon fill="#ffffff" stroke="transparent" points="-4,4 -4,-280 993,-280 993,4 -4,4"/>
<text text-anchor="start" x="473.5091" y="-42.4" font-family="sans-serif" font-weight="bold" font-size="14.00" fill="#000000">Legend</text>
<polygon fill="#ffffb3" stroke="transparent" points="260.5,-10 260.5,-30 280.5,-30 280.5,-10 260.5,-10"/>
<text text-anchor="start" x="284.129" y="-15.4" font-family="sans-serif" font-size="14.00" fill="#000000"> &#160;Declarations</text>
<polygon fill="#8dd3c7" stroke="transparent" points="373.5,-10 373.5,-30 393.5,-30 393.5,-10 373.5,-10"/>
<text text-anchor="start" x="397.2251" y="-15.4" font-family="sans-serif" font-size="14.00" fill="#000000"> &#160;Module</text>
<polygon fill="#80b1d3" stroke="transparent" points="459.5,-10 459.5,-30 479.5,-30 479.5,-10 459.5,-10"/>
<text text-anchor="start" x="483.2812" y="-15.4" font-family="sans-serif" font-size="14.00" fill="#000000"> &#160;Bootstrap</text>
<polygon fill="#fdb462" stroke="transparent" points="556.5,-10 556.5,-30 576.5,-30 576.5,-10 556.5,-10"/>
<text text-anchor="start" x="580.1732" y="-15.4" font-family="sans-serif" font-size="14.00" fill="#000000"> &#160;Providers</text>
<polygon fill="#fb8072" stroke="transparent" points="652.5,-10 652.5,-30 672.5,-30 672.5,-10 652.5,-10"/>
<text text-anchor="start" x="676.2258" y="-15.4" font-family="sans-serif" font-size="14.00" fill="#000000"> &#160;Exports</text>
<g id="clust1" class="cluster">
<title>cluster_AppModule</title>
<polygon fill="none" stroke="#000000" stroke-dasharray="1,5" points="8,-70 8,-268 981,-268 981,-70 8,-70"/>
</g>
<g id="clust2" class="cluster">
<title>cluster_AppModule_declarations</title>
<polygon fill="none" stroke="#000000" points="851,-78 851,-130 973,-130 973,-78 851,-78"/>
</g>
<g id="clust4" class="cluster">
<title>cluster_AppModule_imports</title>
<polygon fill="none" stroke="#000000" points="629,-78 629,-130 843,-130 843,-78 629,-78"/>
</g>
<g id="clust6" class="cluster">
<title>cluster_AppModule_bootstrap</title>
<polygon fill="none" stroke="#000000" points="493,-208 493,-260 617,-260 617,-208 493,-208"/>
</g>
<g id="clust7" class="cluster">
<title>cluster_AppModule_providers</title>
<polygon fill="none" stroke="#000000" points="16,-78 16,-130 621,-130 621,-78 16,-78"/>
</g>
<!-- AppComponent -->
<g id="node1" class="node">
<title>AppComponent</title>
<polygon fill="#ffffb3" stroke="#000000" points="964.9399,-122 859.0601,-122 859.0601,-86 964.9399,-86 964.9399,-122"/>
<text text-anchor="middle" x="912" y="-99.8" font-family="Times,serif" font-size="14.00" fill="#000000">AppComponent</text>
</g>
<!-- AppModule -->
<g id="node2" class="node">
<title>AppModule</title>
<polygon fill="#8dd3c7" stroke="#000000" points="596.6571,-187 593.6571,-191 572.6571,-191 569.6571,-187 513.3429,-187 513.3429,-151 596.6571,-151 596.6571,-187"/>
<text text-anchor="middle" x="555" y="-164.8" font-family="Times,serif" font-size="14.00" fill="#000000">AppModule</text>
</g>
<!-- AppComponent&#45;&gt;AppModule -->
<g id="edge1" class="edge">
<title>AppComponent&#45;&gt;AppModule</title>
<path fill="none" stroke="#000000" d="M912,-122.2921C912,-144.2057 912,-178 912,-178 912,-178 607.0022,-178 607.0022,-178"/>
<polygon fill="#000000" stroke="#000000" points="607.0023,-174.5001 597.0022,-178 607.0022,-181.5001 607.0023,-174.5001"/>
</g>
<!-- AppComponent  -->
<g id="node5" class="node">
<title>AppComponent </title>
<polygon fill="#80b1d3" stroke="#000000" points="609.439,-252 500.561,-252 500.561,-216 609.439,-216 609.439,-252"/>
<text text-anchor="middle" x="555" y="-229.8" font-family="Times,serif" font-size="14.00" fill="#000000">AppComponent </text>
</g>
<!-- AppModule&#45;&gt;AppComponent  -->
<g id="edge4" class="edge">
<title>AppModule&#45;&gt;AppComponent </title>
<path fill="none" stroke="#000000" stroke-dasharray="1,5" d="M555,-187.1061C555,-187.1061 555,-205.991 555,-205.991"/>
<polygon fill="#000000" stroke="#000000" points="551.5001,-205.9909 555,-215.991 558.5001,-205.991 551.5001,-205.9909"/>
</g>
<!-- appRouting -->
<g id="node3" class="node">
<title>appRouting</title>
<polygon fill="#8dd3c7" stroke="#000000" points="834.8331,-122 831.8331,-126 810.8331,-126 807.8331,-122 753.1669,-122 753.1669,-86 834.8331,-86 834.8331,-122"/>
<text text-anchor="middle" x="794" y="-99.8" font-family="Times,serif" font-size="14.00" fill="#000000">appRouting</text>
</g>
<!-- appRouting&#45;&gt;AppModule -->
<g id="edge2" class="edge">
<title>appRouting&#45;&gt;AppModule</title>
<path fill="none" stroke="#000000" d="M794,-122.1061C794,-141.3391 794,-169 794,-169 794,-169 606.9041,-169 606.9041,-169"/>
<polygon fill="#000000" stroke="#000000" points="606.9041,-165.5001 596.9041,-169 606.9041,-172.5001 606.9041,-165.5001"/>
</g>
<!-- SharedModule -->
<g id="node4" class="node">
<title>SharedModule</title>
<polygon fill="#8dd3c7" stroke="#000000" points="735.4231,-122 732.4231,-126 711.4231,-126 708.4231,-122 636.5769,-122 636.5769,-86 735.4231,-86 735.4231,-122"/>
<text text-anchor="middle" x="686" y="-99.8" font-family="Times,serif" font-size="14.00" fill="#000000">SharedModule</text>
</g>
<!-- SharedModule&#45;&gt;AppModule -->
<g id="edge3" class="edge">
<title>SharedModule&#45;&gt;AppModule</title>
<path fill="none" stroke="#000000" d="M686,-122.027C686,-138.3976 686,-160 686,-160 686,-160 606.8094,-160 606.8094,-160"/>
<polygon fill="#000000" stroke="#000000" points="606.8094,-156.5001 596.8094,-160 606.8094,-163.5001 606.8094,-156.5001"/>
</g>
<!-- UserService -->
<g id="node6" class="node">
<title>UserService</title>
<ellipse fill="#fdb462" stroke="#000000" cx="555" cy="-104" rx="58.4415" ry="18"/>
<text text-anchor="middle" x="555" y="-99.8" font-family="Times,serif" font-size="14.00" fill="#000000">UserService</text>
</g>
<!-- UserService&#45;&gt;AppModule -->
<g id="edge5" class="edge">
<title>UserService&#45;&gt;AppModule</title>
<path fill="none" stroke="#000000" d="M555,-122.1061C555,-122.1061 555,-140.991 555,-140.991"/>
<polygon fill="#000000" stroke="#000000" points="551.5001,-140.9909 555,-150.991 558.5001,-140.991 551.5001,-140.9909"/>
</g>
<!-- JobService -->
<g id="node7" class="node">
<title>JobService</title>
<ellipse fill="#fdb462" stroke="#000000" cx="425" cy="-104" rx="53.309" ry="18"/>
<text text-anchor="middle" x="425" y="-99.8" font-family="Times,serif" font-size="14.00" fill="#000000">JobService</text>
</g>
<!-- JobService&#45;&gt;AppModule -->
<g id="edge6" class="edge">
<title>JobService&#45;&gt;AppModule</title>
<path fill="none" stroke="#000000" d="M425,-122.027C425,-138.3976 425,-160 425,-160 425,-160 503.1516,-160 503.1516,-160"/>
<polygon fill="#000000" stroke="#000000" points="503.1516,-163.5001 513.1516,-160 503.1516,-156.5001 503.1516,-163.5001"/>
</g>
<!-- ApplicantService -->
<g id="node8" class="node">
<title>ApplicantService</title>
<ellipse fill="#fdb462" stroke="#000000" cx="276" cy="-104" rx="78.1462" ry="18"/>
<text text-anchor="middle" x="276" y="-99.8" font-family="Times,serif" font-size="14.00" fill="#000000">ApplicantService</text>
</g>
<!-- ApplicantService&#45;&gt;AppModule -->
<g id="edge7" class="edge">
<title>ApplicantService&#45;&gt;AppModule</title>
<path fill="none" stroke="#000000" d="M276,-122.1061C276,-141.3391 276,-169 276,-169 276,-169 503.2309,-169 503.2309,-169"/>
<polygon fill="#000000" stroke="#000000" points="503.2309,-172.5001 513.2309,-169 503.2308,-165.5001 503.2309,-172.5001"/>
</g>
<!-- CompanyService -->
<g id="node9" class="node">
<title>CompanyService</title>
<ellipse fill="#fdb462" stroke="#000000" cx="102" cy="-104" rx="77.5897" ry="18"/>
<text text-anchor="middle" x="102" y="-99.8" font-family="Times,serif" font-size="14.00" fill="#000000">CompanyService</text>
</g>
<!-- CompanyService&#45;&gt;AppModule -->
<g id="edge8" class="edge">
<title>CompanyService&#45;&gt;AppModule</title>
<path fill="none" stroke="#000000" d="M102,-122.2921C102,-144.2057 102,-178 102,-178 102,-178 503.1948,-178 503.1948,-178"/>
<polygon fill="#000000" stroke="#000000" points="503.1949,-181.5001 513.1948,-178 503.1948,-174.5001 503.1949,-181.5001"/>
</g>
</g>
</svg>
